<svg width="93" height="117" viewBox="0 0 93 117" fill="none" xmlns="http://www.w3.org/2000/svg">
<path d="M71.0039 64.0283C70.453 64.0283 70.0068 63.5822 70.0068 63.031V32.1145C70.0068 31.5633 70.453 31.1172 71.0039 31.1172C71.5553 31.1172 72.0015 31.5633 72.0015 32.1145V63.031C72.0015 63.5822 71.5553 64.0283 71.0039 64.0283Z" fill="#3F586A" stroke="#3F586A" stroke-width="0.4"/>
<path d="M65.02 64.0283C64.4686 64.0283 64.0225 63.5822 64.0225 63.031V32.1145C64.0225 31.5633 64.4686 31.1172 65.02 31.1172C65.5709 31.1172 66.0171 31.5633 66.0171 32.1145V63.031C66.0171 63.5822 65.5709 64.0283 65.02 64.0283Z" fill="#3F586A" stroke="#3F586A" stroke-width="0.4"/>
<path d="M71.0035 33.1116C70.4526 33.1116 70.0064 32.6654 70.0064 32.1143C70.0064 31.0147 69.1121 30.1196 68.0118 30.1196C66.9114 30.1196 66.0171 31.0147 66.0171 32.1143C66.0171 32.6654 65.5709 33.1116 65.02 33.1116C64.4686 33.1116 64.0225 32.6654 64.0225 32.1143C64.0225 29.9141 65.8126 28.125 68.0118 28.125C70.2109 28.125 72.001 29.9141 72.001 32.1143C72.001 32.6654 71.5549 33.1116 71.0035 33.1116Z" fill="#3F586A" stroke="#3F586A" stroke-width="0.4"/>
<path d="M65.0825 111.897C64.5311 111.897 64.0732 111.451 64.0732 110.9C64.0732 110.349 64.5097 109.902 65.0631 109.902H65.0825C65.6314 109.902 66.0796 110.349 66.0796 110.9C66.0796 111.451 65.6314 111.897 65.0825 111.897Z" fill="#3F586A" stroke="#3F586A" stroke-width="0.4"/>
<path d="M58.2416 93.5492C57.9146 93.5492 57.5932 93.3879 57.4024 93.0896L42.8069 70.3581C42.1408 69.2069 41.9704 67.9136 42.3026 66.6746C42.6348 65.4356 43.4286 64.4014 44.5387 63.7597C46.8314 62.4342 49.7745 63.227 51.097 65.5177L55.8442 71.7645C56.1774 72.2049 56.0916 72.8299 55.6514 73.1631C55.211 73.494 54.5875 73.4085 54.2548 72.972L49.4375 66.618C48.5963 65.1745 46.8763 64.7189 45.535 65.4872C44.8873 65.8623 44.4237 66.4661 44.2292 67.1906C44.0354 67.9153 44.1347 68.6713 44.5098 69.3177L59.0818 92.0142C59.3798 92.4776 59.2434 93.0933 58.7798 93.3913C58.6137 93.4986 58.4266 93.5492 58.2416 93.5492Z" fill="#3F586A" stroke="#3F586A" stroke-width="0.4"/>
<path d="M61.0318 64.0273C60.4803 64.0273 60.0342 63.5812 60.0342 63.03V36.1028C60.0342 35.5516 60.4803 35.1055 61.0318 35.1055C61.5832 35.1055 62.0288 35.5514 62.0288 36.1028V63.03C62.0288 63.5812 61.5832 64.0273 61.0318 64.0273Z" fill="#3F586A" stroke="#3F586A" stroke-width="0.4"/>
<path d="M55.0488 68.0164C54.4979 68.0164 54.0518 67.5705 54.0518 67.0191V36.1028C54.0518 35.5516 54.4979 35.1055 55.0488 35.1055C55.6002 35.1055 56.0464 35.5514 56.0464 36.1028V67.0191C56.0464 67.5705 55.6002 68.0164 55.0488 68.0164Z" fill="#3F586A" stroke="#3F586A" stroke-width="0.4"/>
<path d="M82.9745 99.0612C82.657 99.0612 82.3433 98.9094 82.1522 98.627C81.8405 98.1732 81.9575 97.5517 82.4114 97.2399C87.1351 94.0143 89.9535 88.6713 89.9535 82.9504C89.9535 82.3993 90.3997 81.9531 90.9506 81.9531C91.502 81.9531 91.9482 82.3993 91.9482 82.9504C91.9482 89.3297 88.8026 95.2902 83.5374 98.8857C83.364 99.0046 83.1693 99.0612 82.9745 99.0612Z" fill="#3F586A" stroke="#3F586A" stroke-width="0.4"/>
<path d="M65.0274 100.348C64.8675 100.348 64.7079 100.311 64.5598 100.233C61.4746 98.5929 58.9849 96.0995 57.3586 93.0179C57.1014 92.5309 57.2885 91.9271 57.7756 91.67C58.2661 91.4131 58.8642 91.5999 59.1233 92.087C60.5608 94.8141 62.7639 97.019 65.4945 98.4682C65.9816 98.7293 66.1666 99.3311 65.9075 99.8179C65.7284 100.155 65.384 100.348 65.0274 100.348Z" fill="#3F586A" stroke="#3F586A" stroke-width="0.4"/>
<path d="M61.0328 37.0999C60.4814 37.0999 60.0352 36.6537 60.0352 36.1026C60.0352 35.003 59.1414 34.1079 58.0411 34.1079C56.9402 34.1079 56.0464 35.003 56.0464 36.1026C56.0464 36.6537 55.6002 37.0999 55.0488 37.0999C54.4979 37.0999 54.0518 36.6537 54.0518 36.1026C54.0518 33.9024 55.8419 32.1133 58.0411 32.1133C60.2397 32.1133 62.0298 33.9024 62.0298 36.1026C62.0298 36.6537 61.5842 37.0999 61.0328 37.0999Z" fill="#3F586A" stroke="#3F586A" stroke-width="0.4"/>
<path d="M80.9785 64.0273C80.4271 64.0273 79.9814 63.5812 79.9814 63.03V36.1028C79.9814 35.5516 80.4271 35.1055 80.9785 35.1055C81.5299 35.1055 81.9756 35.5514 81.9756 36.1028V63.03C81.9756 63.5812 81.5299 64.0273 80.9785 64.0273Z" fill="#3F586A" stroke="#3F586A" stroke-width="0.4"/>
<path d="M74.9941 64.0273C74.4432 64.0273 73.9971 63.5812 73.9971 63.03V36.1028C73.9971 35.5516 74.4432 35.1055 74.9941 35.1055C75.5455 35.1055 75.9917 35.5514 75.9917 36.1028V63.03C75.9917 63.5812 75.5455 64.0273 74.9941 64.0273Z" fill="#3F586A" stroke="#3F586A" stroke-width="0.4"/>
<path d="M80.9781 37.0999C80.4267 37.0999 79.981 36.6537 79.981 36.1026C79.981 35.003 79.0867 34.1079 77.9864 34.1079C76.8855 34.1079 75.9917 35.003 75.9917 36.1026C75.9917 36.6537 75.5455 37.0999 74.9941 37.0999C74.4432 37.0999 73.9971 36.6537 73.9971 36.1026C73.9971 33.9024 75.7872 32.1133 77.9864 32.1133C80.185 32.1133 81.9752 33.9024 81.9752 36.1026C81.9752 36.6537 81.5295 37.0999 80.9781 37.0999Z" fill="#3F586A" stroke="#3F586A" stroke-width="0.4"/>
<path d="M90.9512 83.9476C90.4003 83.9476 89.9541 83.5014 89.9541 82.9502V43.0833C89.9541 42.5321 90.4003 42.0859 90.9512 42.0859C91.5026 42.0859 91.9487 42.5321 91.9487 43.0833V82.95C91.9487 83.5014 91.5026 83.9476 90.9512 83.9476Z" fill="#3F586A" stroke="#3F586A" stroke-width="0.4"/>
<path d="M84.9673 64.0268C84.4159 64.0268 83.9697 63.5806 83.9697 63.0295V43.0833C83.9697 42.5321 84.4159 42.0859 84.9673 42.0859C85.5182 42.0859 85.9644 42.5321 85.9644 43.0833V63.0295C85.9644 63.5806 85.5182 64.0268 84.9673 64.0268Z" fill="#3F586A" stroke="#3F586A" stroke-width="0.4"/>
<path d="M90.9507 44.0804C90.3998 44.0804 89.9537 43.6342 89.9537 43.083C89.9537 41.9835 89.0593 41.0884 87.959 41.0884C86.8587 41.0884 85.9644 41.9835 85.9644 43.083C85.9644 43.6342 85.5182 44.0804 84.9673 44.0804C84.4159 44.0804 83.9697 43.6342 83.9697 43.083C83.9697 40.8829 85.7599 39.0938 87.959 39.0938C90.1582 39.0938 91.9483 40.8829 91.9483 43.083C91.9483 43.6342 91.5021 44.0804 90.9507 44.0804Z" fill="#3F586A" stroke="#3F586A" stroke-width="0.4"/>
<path d="M65.02 105.915C64.4686 105.915 64.0225 105.469 64.0225 104.918V99.3489C64.0225 98.7977 64.4686 98.3516 65.02 98.3516C65.5709 98.3516 66.0171 98.7977 66.0171 99.3489V104.918C66.0171 105.469 65.5709 105.915 65.02 105.915Z" fill="#3F586A" stroke="#3F586A" stroke-width="0.4"/>
<path d="M82.9732 105.914C82.4218 105.914 81.9756 105.468 81.9756 104.917V98.0637C81.9756 97.5126 82.4218 97.0664 82.9732 97.0664C83.5246 97.0664 83.9702 97.5126 83.9702 98.0637V104.917C83.9702 105.468 83.5246 105.914 82.9732 105.914Z" fill="#3F586A" stroke="#3F586A" stroke-width="0.4"/>
<path d="M86.9617 115.885H61.0318C60.4803 115.885 60.0342 115.439 60.0342 114.888C60.0342 114.337 60.4803 113.891 61.0318 113.891H86.9619C87.5128 113.891 87.959 114.337 87.959 114.888C87.9587 115.439 87.5126 115.885 86.9617 115.885Z" fill="#3F586A" stroke="#3F586A" stroke-width="0.4"/>
<path d="M63.0259 113.892C62.4745 113.892 62.0283 113.446 62.0283 112.895V106.911C62.0283 106.36 62.4745 105.914 63.0259 105.914C63.5773 105.914 64.023 106.36 64.023 106.911V112.895C64.023 113.446 63.5773 113.892 63.0259 113.892Z" fill="#3F586A" stroke="#3F586A" stroke-width="0.4"/>
<path d="M84.9667 107.909H63.0259C62.4745 107.909 62.0283 107.463 62.0283 106.911C62.0283 106.36 62.4745 105.914 63.0259 105.914H84.9667C85.5177 105.914 85.9638 106.36 85.9638 106.911C85.9638 107.463 85.5177 107.909 84.9667 107.909Z" fill="#3F586A" stroke="#3F586A" stroke-width="0.4"/>
<path d="M84.9673 114.307C84.4159 114.307 83.9697 113.861 83.9697 113.31V106.911C83.9697 106.36 84.4159 105.914 84.9673 105.914C85.5182 105.914 85.9644 106.36 85.9644 106.911V113.31C85.9644 113.861 85.5182 114.307 84.9673 114.307Z" fill="#3F586A" stroke="#3F586A" stroke-width="0.4"/>
<path d="M46.073 81.979H7.18189C6.63049 81.979 6.18457 81.5329 6.18457 80.9817C6.18457 80.4305 6.63049 79.9844 7.18189 79.9844H46.0728C46.6239 79.9844 47.0703 80.4305 47.0703 80.9817C47.0703 81.5329 46.6242 81.979 46.073 81.979Z" fill="#3F586A" stroke="#3F586A" stroke-width="0.4"/>
<path d="M69.0149 2.19386H7.18189C6.63049 2.19386 6.18457 1.7477 6.18457 1.19654C6.18457 0.645383 6.63049 0.199219 7.18189 0.199219H69.0149C69.5658 0.199219 70.012 0.645383 70.012 1.19654C70.012 1.74795 69.5658 2.19386 69.0149 2.19386Z" fill="#3F586A" stroke="#3F586A" stroke-width="0.4"/>
<path d="M7.18146 93.9466C3.33232 93.9466 0.200195 90.8143 0.200195 86.9654C0.200195 83.1165 3.33257 79.9844 7.18146 79.9844C7.73262 79.9844 8.17878 80.4305 8.17878 80.9817C8.17878 81.5329 7.73262 81.979 7.18146 81.979C4.43215 81.979 2.19484 84.2153 2.19484 86.9654C2.19484 89.7159 4.43215 91.952 7.18146 91.952C7.73262 91.952 8.17878 92.3979 8.17878 92.9493C8.17878 93.5005 7.73262 93.9466 7.18146 93.9466Z" fill="#3F586A" stroke="#3F586A" stroke-width="0.4"/>
<path d="M7.1824 89.9563C5.53241 89.9563 4.19043 88.6144 4.19043 86.9644C4.19043 85.3146 5.53241 83.9727 7.1824 83.9727C7.73356 83.9727 8.17972 84.4186 8.17972 84.97C8.17972 85.5211 7.73356 85.9673 7.1824 85.9673C6.63199 85.9673 6.18508 86.4152 6.18508 86.9644C6.18508 87.5138 6.63199 87.9617 7.1824 87.9617C7.73356 87.9617 8.17972 88.4079 8.17972 88.959C8.17972 89.5104 7.73356 89.9563 7.1824 89.9563Z" fill="#3F586A" stroke="#3F586A" stroke-width="0.4"/>
<path d="M1.19752 8.1778C0.64636 8.1778 0.200195 7.73189 0.200195 7.18048C0.200195 3.3316 3.33257 0.199219 7.18146 0.199219C7.73262 0.199219 8.17878 0.645383 8.17878 1.19654C8.17878 1.7477 7.73262 2.19386 7.18146 2.19386C4.43215 2.19386 2.19484 4.43092 2.19484 7.18048C2.19484 7.73164 1.74893 8.1778 1.19752 8.1778Z" fill="#3F586A" stroke="#3F586A" stroke-width="0.4"/>
<path d="M1.19752 87.9626C0.64636 87.9626 0.200195 87.5167 0.200195 86.9653V7.18092C0.200195 6.62976 0.64636 6.18359 1.19752 6.18359C1.74868 6.18359 2.19484 6.62976 2.19484 7.18092V86.9653C2.19484 87.5167 1.74893 87.9626 1.19752 87.9626Z" fill="#3F586A" stroke="#3F586A" stroke-width="0.4"/>
<path d="M71.0083 4.18851C70.4574 4.18851 70.0112 3.74235 70.0112 3.19119C70.0112 2.64078 69.5651 2.19386 69.0142 2.19386C68.4628 2.19386 68.0166 1.7477 68.0166 1.19654C68.0166 0.645383 68.4628 0.199219 69.0142 0.199219C70.6639 0.199219 72.0059 1.54145 72.0059 3.19119C72.0059 3.74235 71.5597 4.18851 71.0083 4.18851Z" fill="#3F586A" stroke="#3F586A" stroke-width="0.4"/>
<path d="M53.7524 93.9478H27.1272C26.5758 93.9478 26.1299 93.5016 26.1299 92.9504C26.1299 92.399 26.5758 91.9531 27.1272 91.9531H53.7524C54.3058 91.9531 54.7495 92.399 54.7495 92.9504C54.7495 93.5016 54.3058 93.9478 53.7524 93.9478Z" fill="#3F586A" stroke="#3F586A" stroke-width="0.4"/>
<path d="M71.0098 26.8164C70.4589 26.8164 70.0127 26.3702 70.0127 25.8191V3.19264C70.0127 2.64148 70.4589 2.19531 71.0098 2.19531C71.5612 2.19531 72.0073 2.64148 72.0073 3.19264V25.8191C72.0073 26.3702 71.5612 26.8164 71.0098 26.8164Z" fill="#3F586A" stroke="#3F586A" stroke-width="0.4"/>
<path d="M11.1702 75.9947C10.619 75.9947 10.1729 75.5488 10.1729 74.9976V7.18092C10.1729 6.62976 10.619 6.18359 11.1702 6.18359C11.7216 6.18359 12.1675 6.62976 12.1675 7.18092V74.9976C12.1675 75.5488 11.7216 75.9947 11.1702 75.9947Z" fill="#3F586A" stroke="#3F586A" stroke-width="0.4"/>
<path d="M51.1929 89.9556H27.1272C26.5758 89.9556 26.1299 89.5097 26.1299 88.9583C26.1299 88.4071 26.5758 87.9609 27.1272 87.9609H51.1929C51.7423 87.9609 52.1905 88.4071 52.1905 88.9583C52.1905 89.5097 51.7425 89.9556 51.1929 89.9556Z" fill="#3F586A" stroke="#3F586A" stroke-width="0.4"/>
<path d="M48.6325 85.9673H7.18189C6.63049 85.9673 6.18457 85.5211 6.18457 84.97C6.18457 84.4186 6.63049 83.9727 7.18189 83.9727H48.6325C49.1834 83.9727 49.6296 84.4186 49.6296 84.97C49.6296 85.5211 49.1834 85.9673 48.6325 85.9673Z" fill="#3F586A" stroke="#3F586A" stroke-width="0.4"/>
<path d="M11.1702 103.918C10.619 103.918 10.1729 103.472 10.1729 102.921V88.9583C10.1729 88.4071 10.619 87.9609 11.1702 87.9609C11.7216 87.9609 12.1675 88.4071 12.1675 88.9583V102.921C12.1675 103.472 11.7216 103.918 11.1702 103.918Z" fill="#3F586A" stroke="#3F586A" stroke-width="0.4"/>
<path d="M23.1389 103.918C22.5878 103.918 22.1416 103.472 22.1416 102.921V88.9583C22.1416 88.4071 22.5878 87.9609 23.1389 87.9609C23.6901 87.9609 24.1362 88.4071 24.1362 88.9583V102.921C24.1362 103.472 23.6901 103.918 23.1389 103.918Z" fill="#3F586A" stroke="#3F586A" stroke-width="0.4"/>
<path d="M11.1701 103.919C10.7523 103.919 10.3638 103.655 10.2244 103.238C10.05 102.716 10.3326 102.151 10.8546 101.975L16.8385 99.9807C17.3635 99.8074 17.9254 100.09 18.0997 100.612C18.274 101.134 17.9917 101.699 17.4695 101.874L11.4858 103.869C11.3805 103.904 11.2743 103.919 11.1701 103.919Z" fill="#3F586A" stroke="#3F586A" stroke-width="0.4"/>
<path d="M23.1382 103.919C23.034 103.919 22.9278 103.904 22.8228 103.869L16.8388 101.874C16.3168 101.699 16.0343 101.134 16.2089 100.612C16.3832 100.09 16.9441 99.8073 17.47 99.9808L23.454 101.975C23.976 102.151 24.2585 102.716 24.0839 103.238C23.9445 103.655 23.556 103.919 23.1382 103.919Z" fill="#3F586A" stroke="#3F586A" stroke-width="0.4"/>
<path d="M17.1545 97.9345C16.6031 97.9345 16.1572 97.4886 16.1572 96.9375V89.2083C16.1572 88.6569 16.6031 88.2109 17.1545 88.2109C17.7057 88.2109 18.1519 88.6569 18.1519 89.2083V96.9375C18.1516 97.4886 17.7057 97.9345 17.1545 97.9345Z" fill="#3F586A" stroke="#3F586A" stroke-width="0.4"/>
</svg>
