<svg width="101" height="112" viewBox="0 0 101 112" fill="none" xmlns="http://www.w3.org/2000/svg">
<path fill-rule="evenodd" clip-rule="evenodd" d="M99.8551 32.258C100.071 32.4661 100.2 32.7529 100.2 33.0767V110.061C100.2 110.686 99.694 111.195 99.0729 111.195L23.8409 111.199C23.2197 111.199 22.7136 110.69 22.7136 110.066V77.4594C22.7136 75.9702 24.9683 75.9702 24.9683 77.4594V108.928H97.9504V34.2108H78.7121C78.0909 34.2108 77.5848 33.7021 77.5848 33.0777V11.9915H63.5602C62.0785 11.9915 62.0785 9.7252 63.5602 9.7252H78.7121C79.0664 9.7252 79.3793 9.88708 79.5863 10.1461L99.8551 32.258ZM74.4739 38.2429C66.5273 38.2429 60.0852 44.718 60.0852 52.7056C60.0852 60.6933 66.5272 67.1684 74.4739 67.1684C82.4204 67.1684 88.8625 60.6933 88.8625 52.7056C88.8625 44.718 82.4205 38.2429 74.4739 38.2429ZM83.0554 44.0843C78.3161 39.3206 70.6316 39.3206 65.8927 44.0843C61.1534 48.8481 61.1534 56.5722 65.8927 61.3355C70.6321 66.0992 78.3166 66.0992 83.0554 61.3355C87.7948 56.5717 87.7948 48.8476 83.0554 44.0843ZM34.4415 58.1955C33.8342 58.0706 33.2406 58.4591 33.1118 59.0696L31.5933 66.4003C31.469 67.0108 31.8556 67.6074 32.4629 67.737L39.7561 69.2633C40.3635 69.3881 40.957 68.9996 41.0859 68.3891L42.6043 61.0584C42.7286 60.4479 42.3421 59.8513 41.7347 59.7218L34.4415 58.1955ZM40.1749 61.7058L35.0858 60.6374L34.0229 65.7528L39.1119 66.8211L40.1749 61.7058ZM9.13358 52.8905L16.4267 54.4168C17.0341 54.5417 17.4252 55.1429 17.2964 55.7534L15.7779 63.0841C15.6536 63.6946 15.0555 64.0878 14.4481 63.9583L7.15496 62.432C6.54758 62.3071 6.15646 61.7058 6.2853 61.0953L7.80379 53.7646C7.93264 53.1587 8.52621 52.7656 9.13358 52.8905ZM14.8715 56.4008L9.78239 55.3325L8.71948 60.4478L13.8086 61.5161L14.8715 56.4008ZM21.7873 55.5406C21.18 55.4157 20.5864 55.8042 20.4575 56.4147L18.939 63.7454C18.8148 64.3559 19.2013 64.9525 19.8087 65.0821L27.1019 66.6084C27.7092 66.7333 28.3028 66.3448 28.4316 65.7343L29.9501 58.4035C30.0744 57.793 29.6878 57.1964 29.0805 57.0669L21.7873 55.5406ZM27.5206 59.051L22.4315 57.9826L21.3686 63.0979L26.4577 64.1663L27.5206 59.051ZM40.0457 31.1804C39.4384 31.0555 38.8448 31.444 38.716 32.0545L37.1975 39.3852C37.0732 39.9957 37.4598 40.5923 38.0671 40.7219L45.3603 42.2482C45.9676 42.3731 46.5612 41.9846 46.6901 41.3741L48.2085 34.0433C48.3328 33.4328 47.9463 32.8362 47.3389 32.7067L40.0457 31.1804ZM45.7745 34.6907L40.6854 33.6224L39.6225 38.7377L44.7116 39.8061L45.7745 34.6907ZM14.7379 25.8754C14.1305 25.7505 13.537 26.139 13.4081 26.7495L11.8896 34.0802C11.7654 34.6907 12.1519 35.292 12.7593 35.4169L20.0524 36.9432C20.6598 37.0681 21.2579 36.6796 21.3822 36.0691L22.9007 28.7383C23.0249 28.1278 22.6384 27.5312 22.031 27.4017L14.7379 25.8754ZM20.4712 29.3858L19.4083 34.5011L14.3192 33.4327L15.3821 28.3174L20.4712 29.3858ZM27.3916 28.5301C26.7843 28.4052 26.1907 28.7937 26.0619 29.4042L24.5434 36.735C24.4191 37.3455 24.8057 37.9467 25.413 38.0716L32.7062 39.5979C33.3135 39.7228 33.9071 39.3343 34.036 38.7238L35.5544 31.3931C35.6787 30.7826 35.2922 30.186 34.6848 30.0564L27.3916 28.5301ZM33.125 32.0359L28.0359 30.9675L26.973 36.0828L32.062 37.1512L33.125 32.0359ZM37.2432 44.6859C36.6358 44.561 36.0423 44.9495 35.9134 45.56L34.3949 52.8908C34.2707 53.5013 34.6572 54.0979 35.2646 54.2274L42.5577 55.7537C43.1651 55.8786 43.7586 55.4901 43.8875 54.8796L45.406 47.5489C45.5302 46.9383 45.1437 46.3418 44.5363 46.2122L37.2432 44.6859ZM42.9765 48.1963L37.8874 47.1279L36.8245 52.2432L41.9136 53.3116L42.9765 48.1963ZM11.9352 39.3855L19.2284 40.9119C19.8357 41.0367 20.2269 41.638 20.098 42.2485L18.5795 49.5792C18.4553 50.1897 17.8571 50.5829 17.2497 50.4534L9.95659 48.927C9.3492 48.8022 8.95809 48.2009 9.08693 47.5904L10.6054 40.2597C10.7343 39.6492 11.3278 39.256 11.9352 39.3855ZM17.6685 42.8959L12.5794 41.8275L11.5165 46.9428L16.6056 48.0112L17.6685 42.8959ZM24.589 42.0357C23.9816 41.9108 23.388 42.2993 23.2592 42.9098L21.7407 50.2405C21.6164 50.851 22.003 51.4476 22.6103 51.5772L29.9035 53.1035C30.5109 53.2283 31.1044 52.8398 31.2333 52.2293L32.7518 44.8986C32.876 44.2881 32.4895 43.6915 31.8821 43.562L24.589 42.0357ZM30.3223 45.546L25.2332 44.4776L24.1703 49.593L29.2594 50.6613L30.3223 45.546ZM19.2698 7.77351C18.6624 7.64863 18.0689 8.03714 17.94 8.64764L15.8878 18.5499C15.7636 19.1604 16.1501 19.757 16.7575 19.8866L48.4101 26.519C49.0175 26.6438 49.611 26.2553 49.7399 25.6448L51.7921 15.7425C51.9163 15.132 51.5298 14.5308 50.9224 14.4059L19.2698 7.77351ZM49.3676 16.39L19.9142 10.2202L18.3174 17.9117L47.7708 24.0815L49.3676 16.39ZM17.8068 0.313369C17.7516 0.299495 17.6918 0.28562 17.632 0.276369C16.454 0.0543656 15.2944 0.32262 14.3604 0.937749C13.3988 1.57139 12.6165 2.64901 12.4141 3.86085L0.294214 62.285C-0.207333 64.7132 1.34792 67.1043 3.76362 67.6085L40.8042 75.3693C43.2199 75.8735 45.5988 74.3102 46.1004 71.882L58.2155 13.4626C58.7769 10.9835 57.1664 8.5138 54.6863 8.03747L17.8068 0.313369ZM54.309 10.2712L17.2685 2.5057C16.0768 2.25594 14.8804 3.03758 14.6319 4.24004L2.49785 62.7471C2.24937 63.9496 3.027 65.1474 4.2233 65.3973L41.2639 73.1581C42.4602 73.4079 43.6519 72.6216 43.9005 71.4238L56.0345 12.9215C56.2876 11.7098 55.4731 10.4932 54.309 10.2712ZM33.3274 101.802H90.7618C92.2434 101.802 92.2434 99.5353 90.7618 99.5353H33.3274C31.8412 99.5353 31.8412 101.802 33.3274 101.802ZM32.444 93.31H90.7571C92.2387 93.31 92.2387 91.0437 90.7571 91.0437H32.444C30.9624 91.0437 30.9624 93.31 32.444 93.31ZM55.0464 76.3359H90.7618C92.2434 76.3359 92.2434 74.0696 90.7618 74.0696H55.0464C53.5602 74.0696 53.5602 76.3359 55.0464 76.3359ZM40.3727 84.823H90.7571C92.2387 84.823 92.2387 82.5566 90.7571 82.5566H40.3727C38.8911 82.5566 38.8911 84.823 40.3727 84.823ZM74.4779 53.8396H74.5055V53.8442C75.9733 53.8442 77.3031 54.871 77.3077 56.3047H77.3031C77.3031 56.9661 77.004 57.5674 76.5163 58.0114C74.7493 59.6163 71.6572 58.5016 71.6342 56.3001C71.6204 54.8109 69.3749 54.8339 69.3888 56.3186C69.4073 58.5803 71.1143 60.3979 73.2586 60.8974L73.2494 61.6282C73.231 63.1128 75.4765 63.1405 75.4948 61.656L75.504 60.9391C77.7449 60.5043 79.5532 58.6497 79.5532 56.3141H79.5486C79.544 53.6083 77.1973 51.5872 74.5009 51.5872V51.5919H74.4365V51.5872C72.9686 51.5872 71.6389 50.5605 71.6343 49.1267H71.6389C71.6389 48.4653 71.938 47.8641 72.4257 47.4201C74.1926 45.8151 77.2847 46.9298 77.3077 49.1313C77.3215 50.6206 79.567 50.5975 79.5531 49.1128C79.5347 46.8511 77.8276 45.0335 75.6833 44.534L75.6925 43.8032C75.7109 42.3186 73.4655 42.2909 73.4471 43.7755L73.4379 44.4924C71.1971 44.9271 69.3841 46.7818 69.3841 49.1174H69.3887C69.3933 51.8231 71.74 53.8442 74.4365 53.8442V53.8396L74.4779 53.8396ZM96.509 31.9447L79.8387 13.7547V31.9447H96.509Z" fill="#3F586A" stroke="#3F586A" stroke-width="0.4"/>
</svg>
