<svg width="109" height="109" viewBox="0 0 109 109" fill="none" xmlns="http://www.w3.org/2000/svg">
<path d="M52.5664 78.0439C40.8606 78.0439 22.2227 61.4562 22.2227 41.7999C22.2227 41.3341 22.5995 40.957 23.0656 40.957C23.5314 40.957 23.9085 41.3341 23.9085 41.7999C23.9085 60.5427 41.5111 76.3581 52.5664 76.3581C63.6218 76.3581 81.2253 60.5427 81.2253 41.7999C81.2253 41.3341 81.602 40.957 82.068 40.957C82.5341 40.957 82.9111 41.3341 82.9111 41.7999C82.9113 61.456 64.2723 78.0439 52.5664 78.0439Z" fill="#3F586A" stroke="#3F586A"/>
<path d="M23.0674 39.2727C23.0073 39.2727 22.9464 39.2662 22.8855 39.2529C22.5283 39.1738 22.2625 38.8735 22.2279 38.508C21.17 27.2139 23.5901 18.2418 29.4205 11.8394C37.9561 2.4674 51.9559 0.5 62.1963 0.5C68.1805 0.5 72.6237 1.19051 73.111 1.26955C73.4832 1.32962 73.7697 1.63019 73.8125 2.00537C73.857 2.37992 73.6462 2.73719 73.2971 2.88115C67.2917 5.35315 68.2562 11.3595 68.7534 13.3184C68.9231 13.3102 69.1189 13.3054 69.3375 13.3054C71.7313 13.3054 76.2486 13.889 79.5939 17.7964C83.2665 22.0857 84.3813 29.0717 82.9029 38.5599C82.8485 38.9089 82.5819 39.1871 82.2343 39.2563C81.8853 39.3305 81.5349 39.1698 81.3505 38.8695L74.3125 27.3672C71.6472 28.4002 61.661 32.008 52.3275 32.008C43.0213 32.008 33.1578 28.4202 30.4834 27.3754L23.7957 38.8539C23.6428 39.1171 23.3629 39.2727 23.0674 39.2727ZM74.6619 25.4788C74.9469 25.4788 75.2234 25.6244 75.3798 25.8822L81.5533 35.9696C82.4438 28.1837 81.3573 22.4463 78.3134 18.8929C75.4079 15.4983 71.4417 14.9912 69.3377 14.9912C68.6843 14.9912 68.2777 15.043 68.2496 15.0472C67.8627 15.0974 67.4712 14.867 67.3395 14.4884C67.3098 14.4029 64.7381 6.74196 70.334 2.61136C68.4227 2.40817 65.5631 2.1858 62.1965 2.1858C52.2959 2.1858 38.7885 4.0575 30.6668 12.9746C25.6389 18.4962 23.3071 26.1109 23.7196 35.6362L29.3933 25.8978C29.6064 25.5315 30.056 25.3818 30.4469 25.5439C30.5614 25.5918 42.0127 30.322 52.3282 30.322C62.6577 30.322 74.2241 25.5907 74.3394 25.5431C74.4446 25.4992 74.5532 25.4788 74.6619 25.4788Z" fill="#3F586A" stroke="#3F586A"/>
<path d="M75.5165 108.389H1.3429C0.877081 108.389 0.5 108.012 0.5 107.546V94.0596C0.5 86.8245 4.24762 84.0536 11.1628 81.469C14.9524 80.0533 18.3406 78.6952 21.2329 77.4293C21.6618 77.2449 22.1582 77.4375 22.3435 77.8639C22.5302 78.2903 22.3361 78.7859 21.9095 78.9737C18.9883 80.2512 15.5714 81.624 11.7521 83.0497C5.27073 85.4696 2.1858 87.735 2.1858 94.0598V106.703H75.5165C75.9825 106.703 76.3596 107.08 76.3596 107.546C76.3596 108.012 75.9825 108.389 75.5165 108.389Z" fill="#3F586A" stroke="#3F586A"/>
<path d="M56.9725 88.1589H48.5427C48.2233 88.1589 47.9318 87.9778 47.7887 87.6928L46.1029 84.3215C45.8947 83.9047 46.0633 83.3978 46.4798 83.1904C46.8971 82.983 47.4017 83.1508 47.6108 83.5675L49.0637 86.4731H56.4504L57.9039 83.5675C58.1113 83.1508 58.6197 82.983 59.0347 83.1904C59.4514 83.3978 59.6192 83.905 59.4118 84.3215L57.726 87.6928C57.5831 87.9778 57.2916 88.1589 56.9725 88.1589Z" fill="#3F586A" stroke="#3F586A"/>
<path d="M46.8568 96.5883C46.7523 96.5883 46.646 96.5685 46.544 96.5291C46.1119 96.3546 45.9011 95.8641 46.0742 95.4326L49.4456 87.0038C49.6184 86.5709 50.1108 86.3601 50.5412 86.5332C50.9733 86.7077 51.1841 87.1982 51.011 87.6294L47.6396 96.0584C47.5079 96.3874 47.1909 96.5883 46.8568 96.5883Z" fill="#3F586A" stroke="#3F586A"/>
<path d="M58.6588 96.5877C58.3249 96.5877 58.0071 96.3868 57.8754 96.0576L54.5038 87.6286C54.3309 87.1974 54.5417 86.7069 54.9738 86.5324C55.4019 86.3612 55.8964 86.5703 56.0692 87.003L59.4408 95.4318C59.6136 95.8633 59.4029 96.3537 58.9714 96.5283C58.8696 96.5681 58.7625 96.5877 58.6588 96.5877Z" fill="#3F586A" stroke="#3F586A"/>
<path d="M65.4013 84.787C65.2959 84.787 65.1905 84.7672 65.0885 84.7278L52.4444 79.6706C52.0123 79.4961 51.8015 79.0056 51.9746 78.5741C52.1474 78.1412 52.6396 77.9304 53.0702 78.1035L65.7143 83.1607C66.1458 83.3352 66.3561 83.8259 66.1837 84.2571C66.0518 84.5861 65.7356 84.787 65.4013 84.787Z" fill="#3F586A" stroke="#3F586A"/>
<path d="M40.2393 105.018C40.0254 105.018 39.8123 104.937 39.6474 104.774L31.0935 96.3455C30.8648 96.1217 30.784 95.7859 30.8861 95.4797L32.4361 90.8306L24.2567 79.3792C24.0172 79.0435 24.055 78.5842 24.3465 78.2929L32.7753 69.8641C33.1045 69.5349 33.638 69.5349 33.9672 69.8641C34.2964 70.1933 34.2964 70.7266 33.9672 71.0559L26.043 78.9811L34.057 90.1986C34.2142 90.4193 34.2562 90.699 34.1706 90.956L32.6511 95.5144L40.8314 103.576C41.1631 103.902 41.1663 104.435 40.8396 104.768C40.6748 104.934 40.4575 105.018 40.2393 105.018Z" fill="#3F586A" stroke="#3F586A"/>
<path d="M45.1708 105.019C44.8226 105.019 44.4967 104.802 44.3749 104.454L32.5745 70.7387C32.4215 70.2992 32.6527 69.8186 33.0924 69.6637C33.5336 69.5122 34.0127 69.7428 34.1665 70.1822L45.9669 103.898C46.1199 104.337 45.8887 104.818 45.449 104.973C45.3569 105.004 45.2631 105.019 45.1708 105.019Z" fill="#3F586A" stroke="#3F586A"/>
<path d="M60.3437 105.02C60.2514 105.02 60.1576 105.005 60.0659 104.973C59.6262 104.819 59.394 104.338 59.5472 103.898L71.3473 70.1829C71.5021 69.7434 71.983 69.5111 72.4223 69.6644C72.862 69.8191 73.0926 70.2999 72.9393 70.7393L61.1392 104.455C61.0174 104.802 60.6913 105.02 60.3437 105.02Z" fill="#3F586A" stroke="#3F586A"/>
<path d="M40.1147 84.7864C39.7806 84.7864 39.4636 84.5855 39.3319 84.2563C39.1591 83.8251 39.3698 83.3344 39.8019 83.1598L52.445 78.1027C52.8731 77.9315 53.3678 78.1406 53.5406 78.5733C53.7134 79.0048 53.5027 79.4953 53.0706 79.6698L40.4273 84.727C40.3253 84.7666 40.2191 84.7864 40.1147 84.7864Z" fill="#3F586A" stroke="#3F586A"/>
<path d="M52.757 105.017C52.2911 105.017 51.9141 104.64 51.9141 104.174V92.3739C51.9141 91.9081 52.2911 91.5312 52.757 91.5312C53.2228 91.5312 53.5999 91.9081 53.5999 92.3739V104.174C53.5999 104.64 53.2226 105.017 52.757 105.017Z" fill="#3F586A" stroke="#3F586A"/>
<path d="M85.6313 78.0452H75.5165C75.0509 78.0452 74.6738 77.6683 74.6738 77.2023C74.6738 76.7365 75.0509 76.3594 75.5165 76.3594H85.6313C86.0973 76.3594 86.474 76.7365 86.474 77.2023C86.474 77.6683 86.0973 78.0452 85.6313 78.0452Z" fill="#3F586A" stroke="#3F586A"/>
<path d="M102.489 78.0452H92.3739C91.9083 78.0452 91.5312 77.6683 91.5312 77.2023C91.5312 76.7365 91.9083 76.3594 92.3739 76.3594H102.489C102.955 76.3594 103.331 76.7365 103.331 77.2023C103.332 77.6683 102.955 78.0452 102.489 78.0452Z" fill="#3F586A" stroke="#3F586A"/>
<path d="M75.5173 99.9617C72.2646 99.9617 69.6172 97.3146 69.6172 94.0616C69.6172 93.5958 69.9943 93.2188 70.4603 93.2188C70.9259 93.2188 71.303 93.5958 71.303 94.0616C71.303 96.3861 73.193 98.2759 75.5173 98.2759C77.8402 98.2759 79.732 96.3861 79.732 94.0616C79.732 93.5958 80.1086 93.2188 80.5747 93.2188C81.0407 93.2188 81.4178 93.5958 81.4178 94.0616C81.4178 97.3148 78.7702 99.9617 75.5173 99.9617Z" fill="#3F586A" stroke="#3F586A"/>
<path d="M80.5749 94.9045H70.4603C69.9943 94.9045 69.6172 94.5277 69.6172 94.0616C69.6172 93.5958 69.9943 93.2188 70.4603 93.2188H80.5747C81.0407 93.2188 81.4178 93.5958 81.4178 94.0616C81.418 94.5277 81.0409 94.9045 80.5749 94.9045Z" fill="#3F586A" stroke="#3F586A"/>
<path d="M70.459 93.2164C70.3471 93.2164 70.2351 93.1949 70.1264 93.1472C69.6983 92.9647 69.5006 92.4689 69.6833 92.0411L74.7407 80.2407C74.9234 79.8128 75.4224 79.6151 75.8469 79.7995C76.2749 79.9821 76.4743 80.4778 76.2899 80.9057L71.2325 92.7061C71.0959 93.0256 70.785 93.2164 70.459 93.2164Z" fill="#3F586A" stroke="#3F586A"/>
<path d="M80.5726 93.2178C80.2449 93.2178 79.9342 93.0271 79.7974 92.7075L74.74 80.9072C74.5572 80.4793 74.7547 79.9835 75.183 79.801C75.6075 79.6132 76.1048 79.8141 76.2892 80.2422L81.3466 92.0425C81.531 92.4704 81.3318 92.9661 80.9035 93.1487C80.7965 93.1965 80.6828 93.2178 80.5726 93.2178Z" fill="#3F586A" stroke="#3F586A"/>
<path d="M102.488 99.9617C99.2348 99.9617 96.5879 97.3146 96.5879 94.0616C96.5879 93.5958 96.9646 93.2188 97.4306 93.2188C97.8966 93.2188 98.2737 93.5958 98.2737 94.0616C98.2737 96.3861 100.163 98.2759 102.488 98.2759C104.811 98.2759 106.702 96.3861 106.702 94.0616C106.702 93.5958 107.079 93.2188 107.545 93.2188C108.011 93.2188 108.388 93.5958 108.388 94.0616C108.388 97.3148 105.741 99.9617 102.488 99.9617Z" fill="#3F586A" stroke="#3F586A"/>
<path d="M107.545 94.9045H97.4306C96.9646 94.9045 96.5879 94.5277 96.5879 94.0616C96.5879 93.5958 96.9646 93.2188 97.4306 93.2188H107.545C108.011 93.2188 108.388 93.5958 108.388 94.0616C108.388 94.5277 108.011 94.9045 107.545 94.9045Z" fill="#3F586A" stroke="#3F586A"/>
<path d="M97.4312 93.2164C97.3193 93.2164 97.2074 93.1949 97.0986 93.1472C96.6709 92.9647 96.4732 92.4689 96.656 92.0411L101.713 80.2407C101.897 79.8128 102.393 79.6151 102.82 79.7995C103.247 79.9821 103.447 80.4778 103.262 80.9057L98.2052 92.7061C98.0686 93.0256 97.7573 93.2164 97.4312 93.2164Z" fill="#3F586A" stroke="#3F586A"/>
<path d="M107.546 93.2178C107.218 93.2178 106.907 93.0271 106.77 92.7075L101.713 80.9072C101.53 80.4793 101.727 79.9835 102.156 79.801C102.579 79.6132 103.079 79.8141 103.262 80.2422L108.319 92.0425C108.504 92.4704 108.304 92.9661 107.876 93.1487C107.769 93.1965 107.656 93.2178 107.546 93.2178Z" fill="#3F586A" stroke="#3F586A"/>
<path d="M89.0035 79.7293C87.6092 79.7293 86.4746 78.5949 86.4746 77.2006C86.4746 75.8063 87.6092 74.6719 89.0035 74.6719C90.3978 74.6719 91.532 75.8063 91.532 77.2006C91.532 78.5949 90.3978 79.7293 89.0035 79.7293ZM89.0035 76.3577C88.5375 76.3577 88.1604 76.7364 88.1604 77.2006C88.1604 77.6649 88.5375 78.0435 89.0035 78.0435C89.4674 78.0435 89.8462 77.6649 89.8462 77.2006C89.8462 76.7364 89.4674 76.3577 89.0035 76.3577Z" fill="#3F586A" stroke="#3F586A"/>
<path d="M89.0033 76.3597C88.5372 76.3597 88.1602 75.9828 88.1602 75.5168V73.831C88.1602 73.3652 88.5372 72.9883 89.0033 72.9883C89.4689 72.9883 89.846 73.3652 89.846 73.831V75.5168C89.846 75.9828 89.4689 76.3597 89.0033 76.3597Z" fill="#3F586A" stroke="#3F586A"/>
<path d="M89.0033 105.017C88.5372 105.017 88.1602 104.64 88.1602 104.174V80.5734C88.1602 80.1073 88.5372 79.7305 89.0033 79.7305C89.4689 79.7305 89.846 80.1073 89.846 80.5734V104.174C89.846 104.64 89.4689 105.017 89.0033 105.017Z" fill="#3F586A" stroke="#3F586A"/>
<path d="M97.4309 105.018H80.5732C80.1071 105.018 79.7305 104.641 79.7305 104.175C79.7305 103.709 80.1071 103.332 80.5732 103.332H97.4309C97.8969 103.332 98.274 103.709 98.274 104.175C98.274 104.641 97.8969 105.018 97.4309 105.018Z" fill="#3F586A" stroke="#3F586A"/>
<path d="M78.8876 106.704C78.422 106.704 78.0449 106.327 78.0449 105.861C78.0449 104.466 79.1791 103.332 80.5734 103.332C81.0394 103.332 81.4165 103.709 81.4165 104.175C81.4165 104.641 81.0394 105.018 80.5734 105.018C80.1074 105.018 79.7307 105.396 79.7307 105.861C79.7307 106.327 79.3536 106.704 78.8876 106.704Z" fill="#3F586A" stroke="#3F586A"/>
<path d="M99.1164 106.704C98.6503 106.704 98.2737 106.327 98.2737 105.861C98.2737 105.396 97.8949 105.018 97.4306 105.018C96.9646 105.018 96.5879 104.641 96.5879 104.175C96.5879 103.709 96.9646 103.332 97.4306 103.332C98.8249 103.332 99.9595 104.466 99.9595 105.861C99.9595 106.327 99.5824 106.704 99.1164 106.704Z" fill="#3F586A" stroke="#3F586A"/>
<path d="M78.8876 108.387C78.422 108.387 78.0449 108.01 78.0449 107.544V105.859C78.0449 105.392 78.422 105.016 78.8876 105.016C79.3536 105.016 79.7307 105.392 79.7307 105.859V107.544C79.7307 108.01 79.3536 108.387 78.8876 108.387Z" fill="#3F586A" stroke="#3F586A"/>
<path d="M99.1181 108.387C98.652 108.387 98.2754 108.01 98.2754 107.544V105.859C98.2754 105.392 98.652 105.016 99.1181 105.016C99.5841 105.016 99.9612 105.392 99.9612 105.859V107.544C99.9612 108.01 99.5841 108.387 99.1181 108.387Z" fill="#3F586A" stroke="#3F586A"/>
<path d="M99.117 108.389H78.8876C78.422 108.389 78.0449 108.012 78.0449 107.546C78.0449 107.08 78.422 106.703 78.8876 106.703H99.117C99.583 106.703 99.9601 107.08 99.9601 107.546C99.9601 108.012 99.583 108.389 99.117 108.389Z" fill="#3F586A" stroke="#3F586A"/>
</svg>
