<svg width="98" height="101" viewBox="0 0 98 101" fill="none" xmlns="http://www.w3.org/2000/svg">
<path fill-rule="evenodd" clip-rule="evenodd" d="M76.1156 22.4215C76.3102 22.609 76.4303 22.8674 76.4303 23.1591V99.1783C76.4303 99.7409 75.9748 100.199 75.4158 100.199H1.21466C0.655674 100.199 0.200195 99.7409 0.200195 99.1783V1.22014C0.200195 0.657594 0.655674 0.199219 1.21466 0.199219H55.3338C55.6526 0.199219 55.9342 0.345066 56.1205 0.578419L76.1156 22.4215ZM38.3112 91.4311C43.1807 87.8433 47.0024 83.1304 49.5325 78.1254C52.1536 72.9416 53.3833 67.462 52.9569 62.6201C48.4353 61.07 41.5787 58.6823 38.3117 55.0486C35.0447 58.6864 28.1877 61.0699 23.6665 62.6201C23.24 67.4622 24.4698 72.9418 27.0909 78.1254C29.625 83.13 33.4417 87.8429 38.3112 91.4311ZM51.3419 79.0514C54.257 73.2884 55.5531 67.1421 54.9071 61.7496C54.8574 61.3288 54.5593 60.9996 54.1783 60.8871C51.5739 59.9953 48.3897 58.9035 45.5492 57.5493C42.7914 56.2325 40.3609 54.6741 39.1601 52.8364C38.7585 52.2238 37.864 52.2155 37.4583 52.8489C34.9822 56.7034 26.6302 59.4577 22.4029 60.9037C22.0219 61.0329 21.7652 61.3704 21.7238 61.7496C21.0778 67.1418 22.3739 73.2877 25.2889 79.0514C28.0591 84.531 32.3033 89.6814 37.7314 93.5155C38.0958 93.7739 38.5761 93.7572 38.9157 93.503C44.3358 89.6693 48.5715 84.5269 51.3419 79.0514ZM84.5629 35.3431H90.7863V29.2259H84.5629V35.3431ZM92.8111 35.3431H96.1857C96.7447 35.3431 97.2002 35.8015 97.2002 36.364V49.3859C97.2002 50.7277 95.1712 50.7277 95.1712 49.3859V37.3849H92.811V86.3267C92.811 86.4642 92.782 86.5975 92.7323 86.7184L88.633 99.4907C88.3349 100.428 87.0099 100.432 86.7076 99.4907L82.6083 86.7184L82.5296 86.3267L82.5338 28.2055C82.5338 27.6429 82.9893 27.1846 83.5482 27.1846H84.8194V21.5091C84.8194 20.9466 85.2749 20.4882 85.8339 20.4882H89.515C90.074 20.4882 90.5295 20.9466 90.5295 21.5091V27.1846H91.8006C92.3596 27.1846 92.8151 27.6429 92.8151 28.2055L92.8111 35.3431ZM90.7821 37.385H84.5586V85.3059H90.7821V37.385ZM88.5006 22.5293H86.8485V27.1839H88.5006V22.5293ZM87.6725 95.8689L90.4094 87.3432H84.9395L87.6725 95.8689ZM18.6304 46.0524H57.9963C59.3295 46.0524 59.3295 44.0105 57.9963 44.0105H18.6304C17.2971 44.0105 17.2971 46.0524 18.6304 46.0524ZM23.9636 33.2012H52.6582C53.9915 33.2012 53.9915 31.1593 52.6582 31.1593H23.9636C22.6303 31.1593 22.6303 33.2012 23.9636 33.2012ZM18.6304 39.6225H57.9963C59.3295 39.6225 59.3295 37.5807 57.9963 37.5807H18.6304C17.2971 37.5848 17.2971 39.6225 18.6304 39.6225ZM7.13136 9.61572H18.8498C20.1831 9.61572 20.1831 7.57384 18.8498 7.57384H7.13136C5.79807 7.57384 5.79807 9.61572 7.13136 9.61572ZM74.3968 98.1608V24.1791H55.3293C54.7703 24.1791 54.3148 23.7207 54.3148 23.1582L54.3189 2.23586H2.22865V98.1565H74.3967L74.3968 98.1608ZM73.1049 22.1373L56.3439 3.82749V22.1373L73.1049 22.1415V22.1373Z" fill="#3F586A" stroke="#3F586A" stroke-width="0.4"/>
</svg>
