<svg width="93" height="119" viewBox="0 0 93 119" fill="none" xmlns="http://www.w3.org/2000/svg">
<path d="M89.4502 97.7308H6.64179C6.1333 97.7308 5.72168 97.3192 5.72168 96.8107C5.72168 96.302 6.1333 95.8906 6.64179 95.8906H89.4502C89.9587 95.8906 90.3703 96.302 90.3703 96.8107C90.3703 97.3192 89.9587 97.7308 89.4502 97.7308Z" fill="#3F586A" stroke="#3F586A" stroke-width="0.4"/>
<path d="M89.4502 2.03944H6.64179C6.1333 2.03944 5.72168 1.62782 5.72168 1.11933C5.72168 0.610841 6.1333 0.199219 6.64179 0.199219H89.4502C89.9587 0.199219 90.3703 0.610841 90.3703 1.11933C90.3703 1.62805 89.9587 2.03944 89.4502 2.03944Z" fill="#3F586A" stroke="#3F586A" stroke-width="0.4"/>
<path d="M6.64074 108.772C3.08961 108.772 0.200195 105.882 0.200195 102.331C0.200195 98.7803 3.08984 95.8906 6.64074 95.8906C7.14923 95.8906 7.56086 96.302 7.56086 96.8107C7.56086 97.3192 7.14923 97.7308 6.64074 97.7308C4.10428 97.7308 2.04019 99.7938 2.04019 102.331C2.04019 104.869 4.10405 106.932 6.64074 106.932C7.14923 106.932 7.56086 107.343 7.56086 107.852C7.56086 108.36 7.14923 108.772 6.64074 108.772Z" fill="#3F586A" stroke="#3F586A" stroke-width="0.4"/>
<path d="M6.64022 105.091C5.1182 105.091 3.87988 103.852 3.87988 102.33C3.87988 100.808 5.1182 99.5703 6.64022 99.5703C7.1487 99.5703 7.56033 99.9817 7.56033 100.49C7.56033 100.999 7.1487 101.41 6.64022 101.41C6.13265 101.41 5.7201 101.824 5.7201 102.33C5.7201 102.837 6.13265 103.251 6.64022 103.251C7.1487 103.251 7.56033 103.662 7.56033 104.171C7.56033 104.679 7.1487 105.091 6.64022 105.091Z" fill="#3F586A" stroke="#3F586A" stroke-width="0.4"/>
<path d="M1.12031 7.56011C0.611588 7.56011 0.200195 7.14872 0.200195 6.64C0.200195 3.08909 3.08984 0.199219 6.64074 0.199219C7.14923 0.199219 7.56086 0.610841 7.56086 1.11933C7.56086 1.62782 7.14923 2.03944 6.64074 2.03944C4.10428 2.03944 2.04019 4.10331 2.04019 6.64C2.04019 7.14849 1.6288 7.56011 1.12031 7.56011Z" fill="#3F586A" stroke="#3F586A" stroke-width="0.4"/>
<path d="M1.12031 103.249C0.611588 103.249 0.200195 102.837 0.200195 102.329V6.63886C0.200195 6.13037 0.611588 5.71875 1.12031 5.71875C1.6288 5.71875 2.04042 6.13037 2.04042 6.63886V102.329C2.04019 102.837 1.6288 103.249 1.12031 103.249Z" fill="#3F586A" stroke="#3F586A" stroke-width="0.4"/>
<path d="M91.2906 3.87966C90.7821 3.87966 90.3705 3.46804 90.3705 2.95955C90.3705 2.45175 89.957 2.03944 89.4504 2.03944C88.9419 2.03944 88.5303 1.62782 88.5303 1.11933C88.5303 0.610841 88.9419 0.199219 89.4504 0.199219C90.9724 0.199219 92.2107 1.43754 92.2107 2.95955C92.2107 3.46804 91.7991 3.87966 91.2906 3.87966Z" fill="#3F586A" stroke="#3F586A" stroke-width="0.4"/>
<path d="M89.4504 97.7312C88.9419 97.7312 88.5303 97.3196 88.5303 96.8111C88.5303 96.3024 88.9419 95.891 89.4504 95.891C89.957 95.891 90.3705 95.4775 90.3705 94.9709C90.3705 94.4624 90.7821 94.0508 91.2906 94.0508C91.7991 94.0508 92.2107 94.4624 92.2107 94.9709C92.2107 96.4929 90.9724 97.7312 89.4504 97.7312Z" fill="#3F586A" stroke="#3F586A" stroke-width="0.4"/>
<path d="M89.4488 108.77H25.0422C24.5337 108.77 24.1221 108.359 24.1221 107.85C24.1221 107.341 24.5337 106.93 25.0422 106.93H89.4488C89.9573 106.93 90.3689 107.341 90.3689 107.85C90.3689 108.359 89.9573 108.77 89.4488 108.77Z" fill="#3F586A" stroke="#3F586A" stroke-width="0.4"/>
<path d="M89.4504 108.77C88.9419 108.77 88.5303 108.359 88.5303 107.85C88.5303 107.341 88.9419 106.93 89.4504 106.93C89.957 106.93 90.3705 106.517 90.3705 106.01C90.3705 105.501 90.7821 105.09 91.2906 105.09C91.7991 105.09 92.2107 105.501 92.2107 106.01C92.2107 107.532 90.9724 108.77 89.4504 108.77Z" fill="#3F586A" stroke="#3F586A" stroke-width="0.4"/>
<path d="M91.2902 95.8888C90.7817 95.8888 90.3701 95.4772 90.3701 94.9687V2.95917C90.3701 2.45069 90.7817 2.03906 91.2902 2.03906C91.7987 2.03906 92.2103 2.45069 92.2103 2.95917V94.9687C92.2103 95.4772 91.7987 95.8888 91.2902 95.8888Z" fill="#3F586A" stroke="#3F586A" stroke-width="0.4"/>
<path d="M91.2902 106.931C90.7817 106.931 90.3701 106.52 90.3701 106.011V98.6504C90.3701 98.1419 90.7817 97.7305 91.2902 97.7305C91.7987 97.7305 92.2103 98.1419 92.2103 98.6504V106.011C92.2103 106.52 91.7987 106.931 91.2902 106.931Z" fill="#3F586A" stroke="#3F586A" stroke-width="0.4"/>
<path d="M10.3215 92.2076C9.81276 92.2076 9.40137 91.7962 9.40137 91.2875V6.63886C9.40137 6.13037 9.81276 5.71875 10.3215 5.71875C10.83 5.71875 11.2416 6.13037 11.2416 6.63886V91.2875C11.2416 91.7962 10.83 92.2076 10.3215 92.2076Z" fill="#3F586A" stroke="#3F586A" stroke-width="0.4"/>
<path d="M87.6086 105.09H25.0422C24.5337 105.09 24.1221 104.679 24.1221 104.17C24.1221 103.661 24.5337 103.25 25.0422 103.25H87.6086C88.1173 103.25 88.5287 103.661 88.5287 104.17C88.5287 104.679 88.1173 105.09 87.6086 105.09Z" fill="#3F586A" stroke="#3F586A" stroke-width="0.4"/>
<path d="M87.61 101.41H6.64179C6.1333 101.41 5.72168 100.999 5.72168 100.49C5.72168 99.9817 6.1333 99.5703 6.64179 99.5703H87.61C88.1187 99.5703 88.5301 99.9817 88.5301 100.49C88.5301 100.999 88.1187 101.41 87.61 101.41Z" fill="#3F586A" stroke="#3F586A" stroke-width="0.4"/>
<path d="M80.2485 20.4431H21.3625C20.854 20.4431 20.4424 20.0314 20.4424 19.523V12.1623C20.4424 11.6538 20.854 11.2422 21.3625 11.2422H80.2485C80.7572 11.2422 81.1686 11.6538 81.1686 12.1623V19.523C81.1686 20.0314 80.7572 20.4431 80.2485 20.4431ZM22.2824 18.6028H79.3284V13.0824H22.2824V18.6028Z" fill="#3F586A" stroke="#3F586A" stroke-width="0.4"/>
<path d="M71.0479 16.7621H30.5637C30.0552 16.7621 29.6436 16.3507 29.6436 15.842C29.6436 15.3333 30.0552 14.9219 30.5637 14.9219H71.0479C71.5564 14.9219 71.968 15.3335 71.968 15.842C71.968 16.3505 71.5564 16.7621 71.0479 16.7621Z" fill="#3F586A" stroke="#3F586A" stroke-width="0.4"/>
<path d="M71.0479 83.0082H30.5637C30.0552 83.0082 29.6436 82.5968 29.6436 82.0881C29.6436 81.5796 30.0552 81.168 30.5637 81.168H71.0479C71.5564 81.168 71.968 81.5796 71.968 82.0881C71.968 82.5968 71.5564 83.0082 71.0479 83.0082Z" fill="#3F586A" stroke="#3F586A" stroke-width="0.4"/>
<path d="M60.0067 86.6879H41.6047C41.0962 86.6879 40.6846 86.2763 40.6846 85.7678C40.6846 85.259 41.0962 84.8477 41.6047 84.8477H60.0067C60.5154 84.8477 60.9268 85.259 60.9268 85.7678C60.9268 86.2763 60.5154 86.6879 60.0067 86.6879Z" fill="#3F586A" stroke="#3F586A" stroke-width="0.4"/>
<path d="M10.3215 117.972C9.81276 117.972 9.40137 117.56 9.40137 117.051V104.17C9.40137 103.661 9.81276 103.25 10.3215 103.25C10.83 103.25 11.2416 103.661 11.2416 104.17V117.051C11.2416 117.56 10.83 117.972 10.3215 117.972Z" fill="#3F586A" stroke="#3F586A" stroke-width="0.4"/>
<path d="M21.3625 117.972C20.854 117.972 20.4424 117.56 20.4424 117.051V104.17C20.4424 103.661 20.854 103.25 21.3625 103.25C21.871 103.25 22.2826 103.661 22.2826 104.17V117.051C22.2824 117.56 21.871 117.972 21.3625 117.972Z" fill="#3F586A" stroke="#3F586A" stroke-width="0.4"/>
<path d="M10.3214 117.971C9.93577 117.971 9.5773 117.726 9.44891 117.342C9.28808 116.86 9.54854 116.339 10.0301 116.177L15.5508 114.337C16.0379 114.175 16.5544 114.438 16.7143 114.919C16.8751 115.401 16.6145 115.922 16.1331 116.084L10.6125 117.924C10.5154 117.956 10.4173 117.971 10.3214 117.971Z" fill="#3F586A" stroke="#3F586A" stroke-width="0.4"/>
<path d="M21.3616 117.971C21.2654 117.971 21.1676 117.956 21.0705 117.924L15.5498 116.084C15.0683 115.922 14.8076 115.401 14.9684 114.919C15.1283 114.437 15.6458 114.175 16.1322 114.337L21.6526 116.177C22.1342 116.339 22.3949 116.86 22.2341 117.342C22.1054 117.726 21.747 117.971 21.3616 117.971Z" fill="#3F586A" stroke="#3F586A" stroke-width="0.4"/>
<path d="M15.841 112.451C15.3325 112.451 14.9209 112.04 14.9209 111.531V104.401C14.9209 103.892 15.3325 103.48 15.841 103.48C16.3495 103.48 16.7611 103.892 16.7611 104.401V111.531C16.7611 112.039 16.3497 112.451 15.841 112.451Z" fill="#3F586A" stroke="#3F586A" stroke-width="0.4"/>
<path d="M34.2443 60.9273C30.6931 60.9273 27.8037 58.0374 27.8037 54.4865C27.8037 53.978 28.2151 53.5664 28.7238 53.5664C29.2323 53.5664 29.6439 53.978 29.6439 54.4865C29.6439 57.023 31.7078 59.0871 34.2445 59.0871C36.7812 59.0871 38.845 57.023 38.845 54.4865C38.845 53.978 39.2567 53.5664 39.7652 53.5664C40.2736 53.5664 40.6853 53.978 40.6853 54.4865C40.6848 58.0374 37.7952 60.9273 34.2443 60.9273Z" fill="#3F586A" stroke="#3F586A" stroke-width="0.4"/>
<path d="M39.7649 55.4066H28.7238C28.2151 55.4066 27.8037 54.9952 27.8037 54.4865C27.8037 53.978 28.2151 53.5664 28.7238 53.5664H39.7649C40.2734 53.5664 40.685 53.978 40.685 54.4865C40.685 54.9952 40.2737 55.4066 39.7649 55.4066Z" fill="#3F586A" stroke="#3F586A" stroke-width="0.4"/>
<path d="M28.7238 53.5662C28.6277 53.5662 28.5296 53.551 28.4325 53.5186C27.951 53.3587 27.6903 52.8375 27.8513 52.3551L33.3718 35.7933C33.5326 35.3117 34.0475 35.0503 34.5356 35.2118C35.0171 35.3718 35.2778 35.8929 35.1167 36.3756L29.5961 52.9372C29.4677 53.3228 29.109 53.5662 28.7238 53.5662Z" fill="#3F586A" stroke="#3F586A" stroke-width="0.4"/>
<path d="M39.7639 53.5661C39.3785 53.5661 39.0198 53.3226 38.8914 52.9373L33.3708 36.3757C33.2099 35.8932 33.4706 35.3721 33.9522 35.2119C34.4384 35.0502 34.9549 35.3118 35.1157 35.7934L40.6364 52.3551C40.7972 52.8376 40.5365 53.3588 40.055 53.5187C39.9581 53.5507 39.8601 53.5661 39.7639 53.5661Z" fill="#3F586A" stroke="#3F586A" stroke-width="0.4"/>
<path d="M67.3675 60.9273C63.8164 60.9273 60.9268 58.0374 60.9268 54.4865C60.9268 53.978 61.3384 53.5664 61.8469 53.5664C62.3556 53.5664 62.767 53.978 62.767 54.4865C62.767 57.023 64.8299 59.0871 67.3675 59.0871C69.9047 59.0871 71.9679 57.023 71.9679 54.4865C71.9679 53.978 72.3795 53.5664 72.888 53.5664C73.3965 53.5664 73.8081 53.978 73.8081 54.4865C73.8081 58.0374 70.9182 60.9273 67.3675 60.9273Z" fill="#3F586A" stroke="#3F586A" stroke-width="0.4"/>
<path d="M72.888 55.4066H61.8469C61.3384 55.4066 60.9268 54.9952 60.9268 54.4865C60.9268 53.978 61.3384 53.5664 61.8469 53.5664H72.888C73.3965 53.5664 73.8081 53.978 73.8081 54.4865C73.8081 54.9952 73.3965 55.4066 72.888 55.4066Z" fill="#3F586A" stroke="#3F586A" stroke-width="0.4"/>
<path d="M61.8454 53.5662C61.7483 53.5662 61.6512 53.551 61.5541 53.5186C61.0725 53.3587 60.8118 52.8375 60.972 52.3551L66.4924 35.7933C66.6542 35.3117 67.1684 35.0503 67.6571 35.2118C68.1387 35.3718 68.3994 35.8929 68.2392 36.3756L62.7188 52.9372C62.5895 53.3228 62.2301 53.5662 61.8454 53.5662Z" fill="#3F586A" stroke="#3F586A" stroke-width="0.4"/>
<path d="M72.8873 53.5661C72.5026 53.5661 72.1435 53.3226 72.0139 52.9373L66.4933 36.3757C66.3336 35.8932 66.5941 35.3721 67.0756 35.2119C67.5606 35.0502 68.0781 35.3118 68.2401 35.7934L73.7608 52.3551C73.9207 52.8376 73.66 53.3588 73.1784 53.5187C73.0813 53.5507 72.9844 53.5661 72.8873 53.5661Z" fill="#3F586A" stroke="#3F586A" stroke-width="0.4"/>
<path d="M48.9643 48.0463C48.4556 48.0463 48.0439 47.6347 48.0439 47.1262V30.5646C48.0439 30.0562 48.4556 29.6445 48.9643 29.6445C49.4728 29.6445 49.8842 30.0562 49.8842 30.5646V47.1262C49.8842 47.6347 49.4728 48.0463 48.9643 48.0463Z" fill="#3F586A" stroke="#3F586A" stroke-width="0.4"/>
<path d="M52.6437 48.0463C52.1353 48.0463 51.7236 47.6347 51.7236 47.1262V30.5646C51.7236 30.0562 52.1353 29.6445 52.6437 29.6445C53.1522 29.6445 53.5639 30.0562 53.5639 30.5646V47.1262C53.5639 47.6347 53.1522 48.0463 52.6437 48.0463Z" fill="#3F586A" stroke="#3F586A" stroke-width="0.4"/>
<path d="M52.6445 31.4812C52.136 31.4812 51.7244 31.0696 51.7244 30.5611C51.7244 30.0533 51.3112 29.641 50.8043 29.641C50.2976 29.641 49.8842 30.0533 49.8842 30.5611C49.8842 31.0696 49.4728 31.4812 48.9643 31.4812C48.4556 31.4812 48.0439 31.0696 48.0439 30.5611C48.0439 29.0391 49.2823 27.8008 50.8043 27.8008C52.3265 27.8008 53.5646 29.0391 53.5646 30.5611C53.5646 31.0696 53.153 31.4812 52.6445 31.4812Z" fill="#3F586A" stroke="#3F586A" stroke-width="0.4"/>
<path d="M52.6445 48.0433H48.9643C48.4556 48.0433 48.0439 47.6317 48.0439 47.1232C48.0439 46.6147 48.4556 46.2031 48.9643 46.2031H52.6445C53.153 46.2031 53.5646 46.6147 53.5646 47.1232C53.5646 47.6317 53.153 48.0433 52.6445 48.0433Z" fill="#3F586A" stroke="#3F586A" stroke-width="0.4"/>
<path d="M46.8191 35.1644H34.2434C33.7349 35.1644 33.3232 34.753 33.3232 34.2443C33.3232 33.7356 33.7349 33.3242 34.2434 33.3242H46.8191C47.3278 33.3242 47.7392 33.7358 47.7392 34.2443C47.7392 34.7528 47.3278 35.1644 46.8191 35.1644Z" fill="#3F586A" stroke="#3F586A" stroke-width="0.4"/>
<path d="M67.3671 35.1644H54.4855C53.9771 35.1644 53.5654 34.753 53.5654 34.2443C53.5654 33.7356 53.9771 33.3242 54.4855 33.3242H67.3669C67.8754 33.3242 68.2868 33.7358 68.2868 34.2443C68.2868 34.7528 67.8756 35.1644 67.3671 35.1644Z" fill="#3F586A" stroke="#3F586A" stroke-width="0.4"/>
<path d="M50.8039 70.1252C50.2954 70.1252 49.8838 69.7138 49.8838 69.2053V48.9631C49.8838 48.4546 50.2954 48.043 50.8039 48.043C51.3126 48.043 51.724 48.4546 51.724 48.9631V69.2053C51.724 69.7138 51.3126 70.1252 50.8039 70.1252Z" fill="#3F586A" stroke="#3F586A" stroke-width="0.4"/>
<path d="M47.125 40.6847C44.5885 40.6847 42.5244 38.6206 42.5244 36.0842C42.5244 35.5757 42.936 35.1641 43.4445 35.1641C43.953 35.1641 44.3646 35.5757 44.3646 36.0842C44.3646 37.6064 45.6027 38.8445 47.125 38.8445C47.6335 38.8445 48.0449 39.2561 48.0449 39.7646C48.0449 40.2731 47.6335 40.6847 47.125 40.6847Z" fill="#3F586A" stroke="#3F586A" stroke-width="0.4"/>
<path d="M54.4855 40.6847C53.9771 40.6847 53.5654 40.2731 53.5654 39.7646C53.5654 39.2561 53.9771 38.8445 54.4855 38.8445C56.0076 38.8445 57.2459 37.6064 57.2459 36.0842C57.2459 35.5757 57.6573 35.1641 58.1658 35.1641C58.6745 35.1641 59.0859 35.5757 59.0859 36.0842C59.0859 38.6209 57.0232 40.6847 54.4855 40.6847Z" fill="#3F586A" stroke="#3F586A" stroke-width="0.4"/>
<path d="M37.925 73.8056C37.4163 73.8056 37.0049 73.3942 37.0049 72.8855C37.0049 70.3481 39.0687 68.2852 41.6052 68.2852C42.1139 68.2852 42.5253 68.6965 42.5253 69.2053C42.5253 69.7138 42.1139 70.1251 41.6052 70.1251C40.0832 70.1251 38.8449 71.3635 38.8449 72.8855C38.8449 73.3942 38.4335 73.8056 37.925 73.8056Z" fill="#3F586A" stroke="#3F586A" stroke-width="0.4"/>
<path d="M63.6894 73.8056C63.1807 73.8056 62.7693 73.3942 62.7693 72.8855C62.7693 71.3635 61.531 70.1252 60.009 70.1252C59.5005 70.1252 59.0889 69.7138 59.0889 69.2053C59.0889 68.6965 59.5005 68.2852 60.009 68.2852C62.5447 68.2852 64.6095 70.3499 64.6095 72.8855C64.6095 73.3942 64.1979 73.8056 63.6894 73.8056Z" fill="#3F586A" stroke="#3F586A" stroke-width="0.4"/>
<path d="M60.0067 70.1251H41.6047C41.0962 70.1251 40.6846 69.7138 40.6846 69.2053C40.6846 68.6965 41.0962 68.2852 41.6047 68.2852H60.0067C60.5154 68.2852 60.9268 68.6965 60.9268 69.2053C60.9268 69.7138 60.5154 70.1251 60.0067 70.1251Z" fill="#3F586A" stroke="#3F586A" stroke-width="0.4"/>
<path d="M63.6893 73.8051H37.925C37.4163 73.8051 37.0049 73.3937 37.0049 72.885C37.0049 72.3765 37.4163 71.9648 37.925 71.9648H63.6895C64.198 71.9648 64.6096 72.3765 64.6096 72.885C64.6094 73.3937 64.1978 73.8051 63.6893 73.8051Z" fill="#3F586A" stroke="#3F586A" stroke-width="0.4"/>
</svg>
