<svg width="40" height="53" viewBox="0 0 40 53" fill="none" xmlns="http://www.w3.org/2000/svg">
<path d="M20 0C8.97128 0 0 8.89199 0 19.8232C0 23.3842 1.69191 27.8768 5.15927 33.5598C8.04178 38.2801 11.6136 42.9693 14.7572 47.0996C16.2089 49.0043 17.577 50.8055 18.6319 52.2961C18.9452 52.7412 19.4569 53 20 53C20.5431 53 21.0548 52.7412 21.3681 52.2961C22.423 50.8055 23.7911 49.0043 25.2428 47.0996C28.3864 42.9693 31.9478 38.2801 34.8407 33.5598C38.3081 27.8768 40 23.3842 40 19.8232C40 8.89199 31.0287 0 20 0ZM20 28.9844C14.9034 28.9844 10.7572 24.8748 10.7572 19.8232C10.7572 14.7717 14.9034 10.6621 20 10.6621C25.0966 10.6621 29.2428 14.7717 29.2428 19.8232C29.2428 24.8748 25.0966 28.9844 20 28.9844Z" fill="#F4EEC4"/>
</svg>
