<svg width="55" height="55" viewBox="0 0 55 55" fill="none" xmlns="http://www.w3.org/2000/svg">
<g clip-path="url(#clip0_103_2919)">
<path d="M45.833 9.16406H9.16634C6.64551 9.16406 4.58301 11.2266 4.58301 13.7474V41.2474C4.58301 43.7682 6.64551 45.8307 9.16634 45.8307H45.833C48.3539 45.8307 50.4164 43.7682 50.4164 41.2474V13.7474C50.4164 11.2266 48.3539 9.16406 45.833 9.16406ZM44.9164 18.9036L29.9288 28.2766C28.4393 29.2161 26.5601 29.2161 25.0705 28.2766L10.083 18.9036C9.51009 18.537 9.16634 17.9182 9.16634 17.2536C9.16634 15.7182 10.8393 14.8016 12.1455 15.6036L27.4997 25.2057L42.8539 15.6036C44.1601 14.8016 45.833 15.7182 45.833 17.2536C45.833 17.9182 45.4893 18.537 44.9164 18.9036Z" fill="#F4EEC4"/>
</g>
<defs>
<clipPath id="clip0_103_2919">
<rect width="55" height="55" fill="white"/>
</clipPath>
</defs>
</svg>
