<svg width="131" height="88" viewBox="0 0 131 88" fill="none" xmlns="http://www.w3.org/2000/svg">
<path d="M62.1913 79.2048C62.7532 79.2048 63.2068 78.7619 63.2068 78.2144L63.2068 77.2234L122.145 77.2234L122.145 78.2144C122.145 78.7619 122.6 79.2048 123.162 79.2048C123.723 79.2048 124.178 78.7619 124.178 78.2144L124.178 76.2329C124.178 75.6852 123.723 75.2422 123.162 75.2422L62.1913 75.2422C61.6298 75.2422 61.1754 75.6852 61.1754 76.2329L61.1754 78.2144C61.1754 78.7619 61.6298 79.2048 62.1913 79.2048Z" fill="#3F586A" stroke="#3F586A" stroke-width="0.4"/>
<path d="M56.0931 87.1279L129.257 87.1279C129.819 87.1279 130.273 86.6847 130.273 86.137L130.273 82.1743C130.273 81.6268 129.819 81.1836 129.257 81.1836L56.0931 81.1836C55.5315 81.1836 55.0769 81.6268 55.0769 82.1743L55.0769 86.137C55.0769 86.6847 55.5315 87.1279 56.0931 87.1279ZM128.241 85.1465L57.1093 85.1465L57.1093 83.165L128.241 83.165L128.241 85.1465Z" fill="#3F586A" stroke="#3F586A" stroke-width="0.4"/>
<path d="M83.6793 74.9237C83.8549 74.9237 84.0297 74.8791 84.1845 74.7922L115.92 57.0523C116.407 56.7793 116.576 56.1738 116.296 55.6996L112.253 48.8228C112.12 48.5943 111.898 48.4279 111.638 48.3602C111.38 48.2886 111.101 48.3253 110.867 48.4571L79.1301 66.197C78.643 66.4678 78.4742 67.0735 78.754 67.5474L82.798 74.4245C82.9319 74.6527 83.1533 74.8192 83.4132 74.8888C83.5006 74.9121 83.5901 74.9237 83.6793 74.9237ZM114.028 55.8255L84.0554 72.5806L81.0225 67.4221L110.996 50.6687L114.028 55.8255Z" fill="#3F586A" stroke="#3F586A" stroke-width="0.4"/>
<path d="M55.3752 26.7938C55.5518 26.7938 55.7246 26.7492 55.8811 26.6623L87.618 8.92239C87.8523 8.79183 88.0228 8.5763 88.0935 8.32261C88.1641 8.06892 88.1283 7.79814 87.9941 7.56996L83.9501 0.696836C83.6711 0.222656 83.048 0.0581533 82.5637 0.331166L50.8278 18.0691C50.3415 18.3411 50.173 18.9466 50.4525 19.4207L54.4934 26.2956C54.6263 26.524 54.8484 26.6903 55.1086 26.7591C55.1966 26.7822 55.286 26.7938 55.3752 26.7938ZM85.7256 7.69681L55.7523 24.4507L52.7215 19.2949L82.693 2.54301L85.7256 7.69681Z" fill="#3F586A" stroke="#3F586A" stroke-width="0.4"/>
<path d="M85.6077 14.4617C85.7795 14.4617 85.9531 14.4191 86.1119 14.3302C86.599 14.0584 86.7678 13.4527 86.4877 12.9787L84.4663 9.54203C84.1875 9.06612 83.5652 8.90162 83.0798 9.17537C82.5927 9.44739 82.4239 10.0529 82.7037 10.5271L84.7252 13.9637C84.913 14.2828 85.2553 14.4617 85.6077 14.4617Z" fill="#3F586A" stroke="#3F586A" stroke-width="0.4"/>
<path d="M60.923 28.2611C61.0958 28.2611 61.2684 28.2185 61.429 28.1296C61.9153 27.8575 62.0841 27.2521 61.8043 26.7779L59.7838 23.3412C59.5061 22.8643 58.8848 22.7047 58.3966 22.9748C57.9102 23.2466 57.7415 23.8523 58.0213 24.3262L60.0418 27.7629C60.2283 28.082 60.5716 28.2611 60.923 28.2611Z" fill="#3F586A" stroke="#3F586A" stroke-width="0.4"/>
<path d="M107.844 52.2794C108.016 52.2794 108.189 52.2368 108.348 52.1479C108.835 51.8751 109.004 51.2694 108.724 50.7954L106.704 47.361C106.425 46.8868 105.803 46.7223 105.317 46.9951C104.83 47.2661 104.661 47.8716 104.941 48.3455L106.962 51.7802C107.149 52.0993 107.492 52.2794 107.844 52.2794Z" fill="#3F586A" stroke="#3F586A" stroke-width="0.4"/>
<path d="M83.1624 66.0728C83.3342 66.0728 83.5078 66.0302 83.6663 65.9413C84.1537 65.6683 84.3225 65.0628 84.0424 64.5886L82.022 61.1541C81.7432 60.6782 81.1229 60.5157 80.6355 60.7885C80.1484 61.0592 79.9794 61.665 80.2594 62.1389L82.2799 65.5736C82.4677 65.8927 82.81 66.0728 83.1624 66.0728Z" fill="#3F586A" stroke="#3F586A" stroke-width="0.4"/>
<path d="M3.26317 79.7092C3.43978 79.7092 3.61664 79.6646 3.77927 79.5717L64.2362 44.8322C64.7195 44.5547 64.8803 43.9473 64.5955 43.4758C64.3116 43.0046 63.6865 42.848 63.2052 43.1255L2.74707 77.8652C2.26273 78.142 2.10212 78.7494 2.38775 79.2216C2.57656 79.535 2.91605 79.7092 3.26317 79.7092Z" fill="#3F586A" stroke="#3F586A" stroke-width="0.4"/>
<path d="M7.30626 86.5901C7.48287 86.5901 7.65973 86.5455 7.82211 86.4526L68.2792 51.7123C68.7626 51.4336 68.9232 50.8262 68.6386 50.3557C68.3537 49.8818 67.7306 49.7269 67.2473 50.0056L6.79015 84.7461C6.30606 85.0229 6.14521 85.6303 6.43109 86.1028C6.61964 86.4159 6.95888 86.5901 7.30626 86.5901Z" fill="#3F586A" stroke="#3F586A" stroke-width="0.4"/>
<path d="M77.3551 60.1841C77.5269 60.1841 77.7005 60.1414 77.8593 60.0525L106.069 44.2834C106.304 44.1529 106.474 43.9373 106.545 43.6836C106.615 43.4302 106.58 43.1592 106.446 42.9317L90.271 15.4281C90.1371 15.1996 89.9157 15.0334 89.6558 14.9645C89.3986 14.8959 89.1178 14.9289 88.8848 15.0614L60.6748 30.8315C60.1887 31.1035 60.0199 31.709 60.2995 32.1832L76.4731 59.6851C76.6604 60.0042 77.0029 60.1841 77.3551 60.1841ZM104.177 43.0576L77.7304 57.8409L62.5682 32.0573L89.0136 17.273L104.177 43.0576Z" fill="#3F586A" stroke="#3F586A" stroke-width="0.4"/>
<path d="M5.2934 87.11C6.14875 87.11 7.01604 86.8989 7.80989 86.4557C8.2983 86.1847 8.46703 85.5792 8.187 85.1033C7.909 84.6251 7.28388 84.4646 6.80157 84.7356C5.33888 85.5502 3.47317 85.0569 2.63967 83.6349C2.23487 82.9439 2.12764 82.143 2.33982 81.3767C2.55429 80.6124 3.06023 79.972 3.76896 79.5771C4.25508 79.3041 4.42382 78.6986 4.14403 78.2247C3.86629 77.7485 3.24498 77.586 2.75683 77.8588C1.57977 78.5165 0.734327 79.5828 0.379329 80.8577C0.0240768 82.1348 0.200685 83.4721 0.877391 84.6212C1.81431 86.2159 3.52908 87.11 5.2934 87.11Z" fill="#3F586A" stroke="#3F586A" stroke-width="0.4"/>
<path d="M83.3767 46.4815C84.9646 46.4815 86.5363 46.0713 87.9218 45.2963C90.0393 44.1141 91.5586 42.1973 92.1988 39.8975C92.8378 37.5987 92.5215 35.1946 91.3055 33.1279C89.6802 30.3629 86.6354 28.6445 83.3617 28.6445C81.7757 28.6445 80.2068 29.0528 78.8234 29.8248C74.4471 32.2735 72.9287 37.733 75.4374 41.9966C77.0622 44.7622 80.1047 46.4815 83.3767 46.4815ZM83.3619 30.6262C85.9092 30.6262 88.278 31.9626 89.5433 34.113C90.4881 35.7211 90.7343 37.5913 90.2367 39.379C89.7397 41.1669 88.5578 42.6579 86.9104 43.577C85.8317 44.1807 84.6099 44.4991 83.3764 44.4991C80.8309 44.4991 78.4641 43.1628 77.2009 41.0111C75.2491 37.6946 76.4309 33.4483 79.8348 31.5441C80.9095 30.9436 82.1302 30.6262 83.3619 30.6262Z" fill="#3F586A" stroke="#3F586A" stroke-width="0.4"/>
<path d="M83.373 40.5304C83.9039 40.5304 84.4279 40.3931 84.8893 40.1347C85.593 39.7428 86.1002 39.1054 86.3134 38.3391C86.5276 37.5718 86.4224 36.7699 86.0168 36.0799C85.21 34.7092 83.2671 34.1914 81.8547 34.9799C80.3971 35.7945 79.8909 37.6154 80.7275 39.0367C81.2702 39.9586 82.2834 40.5304 83.373 40.5304ZM83.37 36.5667C83.7341 36.5667 84.0726 36.7573 84.2543 37.0659C84.3892 37.2953 84.4238 37.5622 84.3524 37.8186C84.282 38.073 84.1133 38.2851 83.879 38.4147C83.3908 38.6904 82.7586 38.5066 82.4897 38.051C82.211 37.5778 82.3797 36.9703 82.8658 36.6985C83.0239 36.6101 83.1926 36.5667 83.37 36.5667Z" fill="#3F586A" stroke="#3F586A" stroke-width="0.4"/>
<path d="M85.1853 69.5166C85.3569 69.5166 85.5304 69.474 85.6893 69.385L110.373 55.5887C110.861 55.316 111.03 54.7105 110.75 54.2363C110.472 53.7601 109.85 53.5979 109.363 53.8704L84.6789 67.6667C84.1918 67.9377 84.023 68.5432 84.3028 69.0174C84.4906 69.3365 84.8329 69.5166 85.1853 69.5166Z" fill="#3F586A" stroke="#3F586A" stroke-width="0.4"/>
<path d="M56.8798 21.3837C57.0526 21.3837 57.2251 21.3411 57.386 21.2522L82.0688 7.45589C82.556 7.18386 82.7247 6.57838 82.4449 6.1042C82.1659 5.62829 81.5428 5.46453 81.0585 5.73754L56.3736 19.5339C55.8872 19.8056 55.7187 20.4114 55.9982 20.8855C56.1853 21.2049 56.5288 21.3837 56.8798 21.3837Z" fill="#3F586A" stroke="#3F586A" stroke-width="0.4"/>
<path d="M81.0682 14.716C81.24 14.716 81.4125 14.6744 81.5723 14.5854C82.0595 14.3134 82.2285 13.7079 81.9494 13.233L80.9401 11.5147C80.6593 11.0387 80.0431 10.875 79.5529 11.147C79.0655 11.4188 78.8968 12.0245 79.1758 12.4994L80.1851 14.2178C80.3737 14.5369 80.716 14.716 81.0682 14.716Z" fill="#3F586A" stroke="#3F586A" stroke-width="0.4"/>
<path d="M63.4375 24.571C63.6093 24.571 63.7818 24.5294 63.9417 24.4405C64.4288 24.1687 64.5975 23.563 64.3185 23.088L63.3092 21.3697C63.0314 20.8938 62.4061 20.731 61.924 21.002C61.4356 21.2738 61.2671 21.8795 61.5469 22.3545L62.5552 24.0728C62.7438 24.3922 63.0853 24.571 63.4375 24.571Z" fill="#3F586A" stroke="#3F586A" stroke-width="0.4"/>
<path d="M86.6854 64.1057C86.8571 64.1057 87.0297 64.0631 87.1895 63.9741C87.6767 63.7034 87.8456 63.0976 87.5666 62.6217L86.5583 60.9054C86.2785 60.4312 85.6613 60.2647 85.1711 60.5377C84.6837 60.8107 84.515 61.4162 84.794 61.8904L85.8023 63.6067C85.9906 63.9256 86.3332 64.1057 86.6854 64.1057Z" fill="#3F586A" stroke="#3F586A" stroke-width="0.4"/>
<path d="M104.317 54.2497C104.488 54.2497 104.662 54.2071 104.821 54.1181C105.308 53.8451 105.477 53.2396 105.197 52.7657L104.187 51.0494C103.91 50.5752 103.287 50.4087 102.801 50.6834C102.314 50.9545 102.145 51.56 102.425 52.0339L103.434 53.7502C103.622 54.0696 103.964 54.2497 104.317 54.2497Z" fill="#3F586A" stroke="#3F586A" stroke-width="0.4"/>
<path d="M9.81964 82.8996C9.99244 82.8996 10.165 82.857 10.3238 82.768C10.812 82.4973 10.9807 81.8915 10.7007 81.4156L8.6802 77.9752C8.40245 77.499 7.77732 77.3365 7.29502 77.6076C6.80661 77.8806 6.63814 78.4861 6.91792 78.96L8.93838 82.4006C9.1249 82.7197 9.46846 82.8996 9.81964 82.8996Z" fill="#3F586A" stroke="#3F586A" stroke-width="0.4"/>
<path d="M59.7004 54.07C59.8732 54.07 60.0457 54.0274 60.2066 53.9384C60.6927 53.6657 60.8614 53.06 60.5816 52.586L58.5612 49.1496C58.2834 48.6734 57.6624 48.5129 57.1739 48.7837C56.6876 49.0547 56.5191 49.6602 56.7986 50.1341L58.8191 53.5708C59.0059 53.8899 59.3492 54.07 59.7004 54.07Z" fill="#3F586A" stroke="#3F586A" stroke-width="0.4"/>
<path d="M50.8859 58.9976C51.0585 58.9976 51.231 58.955 51.3919 58.8661C51.8782 58.593 52.047 57.9895 51.7672 57.5134L49.7467 54.075C49.4708 53.599 48.8477 53.4402 48.3595 53.7073C47.8731 53.9803 47.7044 54.586 47.9842 55.06L50.0046 58.4984C50.1914 58.8175 50.5347 58.9976 50.8859 58.9976Z" fill="#3F586A" stroke="#3F586A" stroke-width="0.4"/>
</svg>
