<svg width="36" height="28" viewBox="0 0 36 28" fill="none" xmlns="http://www.w3.org/2000/svg">
<path d="M18.1182 0C19.2617 0 19.1543 0.9258 19.1543 2.0693L19.2227 4.1387H31.0596V6.2109H29.7139L35.2002 19.1523C35.2002 21.1553 31.9024 22.7754 28.4717 22.7754C25.041 22.7754 21.7432 21.1553 21.7432 19.1523L27.2295 6.2109H19.291L19.9151 24.9111C23.9141 25.2041 26.918 26.456 26.918 27.9541H9.3184C9.3184 26.456 12.3223 25.2041 16.3213 24.9111L16.9444 6.2109H7.9727L13.459 19.1523C13.459 21.1553 10.1611 22.7754 6.7305 22.7754C3.2998 22.7754 0 21.1553 0 19.1523L5.4863 6.2109H4.1416V4.1387H17.0137L17.084 2.0693C17.084 0.9258 16.9746 0 18.1182 0ZM32.7822 19.1523L28.9902 9.7627V19.1523H32.7822ZM24.1592 19.1523H27.9541V9.7627L24.1592 19.1523ZM11.041 19.1523L7.2461 9.7627V19.1523H11.041ZM2.417 19.1523H6.2129V9.7627L2.417 19.1523Z" fill="#3D6D90"/>
</svg>
