<svg width="57" height="57" viewBox="0 0 57 57" fill="none" xmlns="http://www.w3.org/2000/svg">
<g clip-path="url(#clip0_103_2918)">
<path d="M45.6712 36.2422L39.6387 35.5534C38.19 35.3872 36.765 35.8859 35.7437 36.9072L31.3737 41.2772C24.6525 37.8572 19.1425 32.3709 15.7225 25.6259L20.1162 21.2322C21.1375 20.2109 21.6362 18.7859 21.47 17.3372L20.7812 11.3522C20.4962 8.95344 18.4775 7.14844 16.055 7.14844H11.9462C9.26248 7.14844 7.02997 9.38094 7.19622 12.0647C8.45497 32.3472 24.6762 48.5447 44.935 49.8034C47.6187 49.9697 49.8512 47.7372 49.8512 45.0534V40.9447C49.875 38.5459 48.07 36.5272 45.6712 36.2422Z" fill="#F4EEC4"/>
</g>
<defs>
<clipPath id="clip0_103_2918">
<rect width="57" height="57" fill="white"/>
</clipPath>
</defs>
</svg>
