<svg width="20" height="20" viewBox="0 0 20 20" fill="none" xmlns="http://www.w3.org/2000/svg">
<g clip-path="url(#clip0_103_462)">
<path d="M16.667 3.33203H3.33366C2.41699 3.33203 1.66699 4.08203 1.66699 4.9987V14.9987C1.66699 15.9154 2.41699 16.6654 3.33366 16.6654H16.667C17.5837 16.6654 18.3337 15.9154 18.3337 14.9987V4.9987C18.3337 4.08203 17.5837 3.33203 16.667 3.33203ZM16.3337 6.8737L10.8837 10.282C10.342 10.6237 9.65866 10.6237 9.11699 10.282L3.66699 6.8737C3.45866 6.74036 3.33366 6.51536 3.33366 6.2737C3.33366 5.71536 3.94199 5.38203 4.41699 5.6737L10.0003 9.16536L15.5837 5.6737C16.0587 5.38203 16.667 5.71536 16.667 6.2737C16.667 6.51536 16.542 6.74036 16.3337 6.8737Z" fill="#F4EEC4"/>
</g>
<defs>
<clipPath id="clip0_103_462">
<rect width="20" height="20" fill="white"/>
</clipPath>
</defs>
</svg>
