<svg width="62" height="95" viewBox="0 0 62 95" fill="none" xmlns="http://www.w3.org/2000/svg">
<path d="M29.824 94.08C25.088 94.08 20.672 93.0987 16.576 91.136C12.5227 89.1733 9.04533 86.4853 6.144 83.072C3.28533 79.616 1.23733 75.648 0 71.168L10.944 68.224C11.712 71.2533 13.0773 73.8773 15.04 76.096C17.0027 78.272 19.2853 79.9787 21.888 81.216C24.5333 82.4107 27.2853 83.008 30.144 83.008C33.8987 83.008 37.2693 82.112 40.256 80.32C43.2853 78.4853 45.6747 76.0747 47.424 73.088C49.1733 70.0587 50.048 66.752 50.048 63.168C50.048 59.456 49.1307 56.1067 47.296 53.12C45.504 50.0907 43.0933 47.7013 40.064 45.952C37.0347 44.2027 33.728 43.328 30.144 43.328C26.0907 43.328 22.6133 44.1813 19.712 45.888C16.8533 47.552 14.592 49.6 12.928 52.032L2.816 48.192L5.632 0H55.104V10.816H11.136L16.192 6.08L13.824 44.672L11.328 41.408C13.888 38.6773 16.9387 36.5653 20.48 35.072C24.064 33.5787 27.712 32.832 31.424 32.832C37.1413 32.832 42.2613 34.176 46.784 36.864C51.3067 39.5093 54.8907 43.136 57.536 47.744C60.1813 52.3093 61.504 57.4507 61.504 63.168C61.504 68.8427 60.0533 74.0267 57.152 78.72C54.2507 83.3707 50.3893 87.104 45.568 89.92C40.7893 92.6933 35.5413 94.08 29.824 94.08Z" fill="#77A8CB"/>
</svg>
