<svg width="62" height="95" viewBox="0 0 62 95" fill="none" xmlns="http://www.w3.org/2000/svg">
<path d="M0 94.016L0.0640001 83.776L40.96 46.976C44.3733 43.904 46.656 41.0027 47.808 38.272C49.0027 35.4987 49.6 32.6613 49.6 29.76C49.6 26.2187 48.7893 23.0187 47.168 20.16C45.5467 17.3013 43.328 15.04 40.512 13.376C37.7387 11.712 34.5813 10.88 31.04 10.88C27.3707 10.88 24.1067 11.7547 21.248 13.504C18.3893 15.2107 16.128 17.4933 14.464 20.352C12.8427 23.2107 12.0533 26.3253 12.096 29.696H0.448C0.448 23.8933 1.792 18.7733 4.48 14.336C7.168 9.856 10.816 6.35733 15.424 3.84C20.0747 1.28 25.344 0 31.232 0C36.9493 0 42.0693 1.32266 46.592 3.96799C51.1147 6.57066 54.6773 10.1333 57.28 14.656C59.9253 19.136 61.248 24.2133 61.248 29.888C61.248 33.8987 60.736 37.376 59.712 40.32C58.7307 43.264 57.1947 45.9947 55.104 48.512C53.0133 50.9867 50.3893 53.632 47.232 56.448L13.248 86.976L11.776 83.136H61.248V94.016H0Z" fill="#F4EEC4"/>
</svg>
