<svg width="60" height="94" viewBox="0 0 60 94" fill="none" xmlns="http://www.w3.org/2000/svg">
<path d="M29.12 93.952C24.5547 93.952 20.3093 93.12 16.384 91.456C12.4587 89.7493 9.06667 87.36 6.208 84.288C3.392 81.1733 1.32267 77.4827 0 73.216L10.944 70.08C12.352 74.3467 14.6987 77.5893 17.984 79.808C21.2693 82.0267 24.96 83.1147 29.056 83.072C32.8107 82.9867 36.0533 82.1333 38.784 80.512C41.5573 78.848 43.6907 76.5867 45.184 73.728C46.72 70.8693 47.488 67.5627 47.488 63.808C47.488 58.0907 45.7813 53.4613 42.368 49.92C38.9547 46.336 34.4747 44.544 28.928 44.544C27.392 44.544 25.7707 44.7573 24.064 45.184C22.4 45.6107 20.8427 46.208 19.392 46.976L13.888 37.952L48.064 7.04L49.536 10.88H3.648V0H57.984V10.944L28.864 38.848L28.736 34.816C34.8373 34.3893 40.1707 35.392 44.736 37.824C49.3013 40.256 52.8427 43.7333 55.36 48.256C57.92 52.7787 59.2 57.9627 59.2 63.808C59.2 69.696 57.8773 74.9013 55.232 79.424C52.5867 83.9467 49.0027 87.5093 44.48 90.112C39.9573 92.672 34.8373 93.952 29.12 93.952Z" fill="#F4EEC4"/>
</svg>
