<svg width="26" height="26" viewBox="0 0 26 26" fill="none" xmlns="http://www.w3.org/2000/svg">
<path d="M13 0C10.4288 6.28513e-06 7.9154 0.76245 5.77757 2.19091C3.63973 3.61937 1.9735 5.64969 0.989565 8.02513C0.00563024 10.4006 -0.25181 13.0144 0.249799 15.5362C0.751408 18.0579 1.98954 20.3743 3.80763 22.1924C5.62571 24.0105 7.94208 25.2486 10.4638 25.7502C12.9856 26.2518 15.5994 25.9944 17.9749 25.0104C20.3503 24.0265 22.3806 22.3603 23.8091 20.2224C25.2376 18.0846 26 15.5712 26 13C26 11.2928 25.6638 9.60237 25.0105 8.02513C24.3571 6.44789 23.3996 5.01477 22.1924 3.80761C20.9852 2.60044 19.5521 1.64287 17.9749 0.989555C16.3976 0.336245 14.7072 -6.06994e-06 13 0ZM19.4763 17.7916L17.9793 19.2886L17.9722 19.2849C16.536 20.4973 13.001 19.0795 9.96073 16.0393C6.92049 12.999 5.50273 9.464 6.71508 8.02782L6.71141 8.02074L8.2084 6.52371C8.36272 6.3694 8.57202 6.28271 8.79025 6.28271C9.00849 6.28271 9.21778 6.3694 9.3721 6.52371L11.5276 8.67924C11.6819 8.83356 11.7686 9.04285 11.7686 9.26109C11.7686 9.47932 11.6819 9.68862 11.5276 9.84294L9.92409 11.4465C11.152 13.2755 12.7244 14.8479 14.5535 16.0759L16.157 14.4724C16.3114 14.3181 16.5207 14.2314 16.7389 14.2314C16.9572 14.2314 17.1664 14.3181 17.3208 14.4724L19.4763 16.6279C19.6306 16.7822 19.7173 16.9915 19.7173 17.2097C19.7173 17.428 19.6306 17.6373 19.4763 17.7916Z" fill="#F4EEC4"/>
</svg>
