<svg width="15" height="20" viewBox="0 0 15 20" fill="none" xmlns="http://www.w3.org/2000/svg">
<path d="M7.5 0C3.36423 0 0 3.35547 0 7.48047C0 8.82422 0.634465 10.5195 1.93473 12.6641C3.01567 14.4453 4.35509 16.2148 5.53394 17.7734C6.07833 18.4922 6.59138 19.1719 6.98695 19.7344C7.10444 19.9023 7.29634 20 7.5 20C7.70366 20 7.89556 19.9023 8.01305 19.7344C8.40862 19.1719 8.92167 18.4922 9.46606 17.7734C10.6449 16.2148 11.9804 14.4453 13.0653 12.6641C14.3655 10.5195 15 8.82422 15 7.48047C15 3.35547 11.6358 0 7.5 0ZM7.5 10.9375C5.58877 10.9375 4.03394 9.38672 4.03394 7.48047C4.03394 5.57422 5.58877 4.02344 7.5 4.02344C9.41123 4.02344 10.9661 5.57422 10.9661 7.48047C10.9661 9.38672 9.41123 10.9375 7.5 10.9375Z" fill="#F4EEC4"/>
</svg>
