<svg width="83" height="81" viewBox="0 0 83 81" fill="none" xmlns="http://www.w3.org/2000/svg">
<path d="M28.45 50.7653C32.5276 56.6309 37.959 59.5949 41.1605 60.9209C41.1923 60.9209 41.2082 60.9053 41.2401 60.8897V40.7969H25.1211C26.1405 46.3661 27.3988 49.2677 28.45 50.7653Z" stroke="#3F586A" stroke-width="3"/>
<path d="M49.6502 26.2574C45.8593 24.9626 43.1038 22.919 41.2562 21.125L41.2402 21.1406V40.7498H56.5788C57.7574 35.6798 58.4105 30.485 58.7609 27.7238C58.7768 27.6146 58.7928 27.521 58.8087 27.4274C56.3399 27.599 53.1384 27.4586 49.6502 26.2574Z" stroke="#3F586A" stroke-width="3"/>
<path d="M41.3197 1.5C19.3233 1.5 1.5 18.9564 1.5 40.5C1.5 62.0436 19.3233 79.5 41.3197 79.5C63.3161 79.5 81.1394 62.0436 81.1394 40.5C81.1394 18.9564 63.3161 1.5 41.3197 1.5ZM61.5003 28.0668C60.7517 33.9948 58.9996 47.91 54.2372 53.8068C50.9401 57.8784 46.6715 61.2792 41.8772 63.6348L41.3197 63.9L40.7463 63.666C37.3536 62.34 30.9666 59.0952 26.2041 52.278C23.4168 48.3 21.5851 39.6576 20.7727 26.6472C20.7568 26.3664 20.6135 24.276 20.6135 24.276L22.3337 24.5724C24.8662 24.9936 28.7685 25.134 33.0213 23.4024C35.7609 22.2636 38.2456 20.5008 40.2047 18.27L41.2241 17.1L42.2594 18.27C43.8204 20.0016 46.5122 22.3416 50.5419 23.73C54.4283 25.0716 57.9325 24.9312 60.1783 24.5724L62.0578 24.2916C62.0578 24.2916 61.6118 27.2088 61.5003 28.0668Z" stroke="#3F586A" stroke-width="3"/>
</svg>
