<svg width="74" height="84" viewBox="0 0 74 84" fill="none" xmlns="http://www.w3.org/2000/svg">
<path d="M14.96 51.5938L15.3994 52.3037C18.0319 56.551 21.452 60.9065 24.6406 64.5254C27.6453 67.9355 30.3782 70.6154 31.998 71.9199L32.3066 72.1621L32.3486 72.1943L32.3877 72.2295C34.9639 74.4943 38.9867 74.4936 41.5635 72.2285L41.6006 72.1963L41.6396 72.166C43.0682 71.0676 45.9301 68.3061 49.1533 64.668C52.3604 61.048 55.8504 56.6451 58.5527 52.3018L58.9922 51.5938H62.459C64.4282 51.5938 66.1752 52.906 66.6602 54.8457L72.0361 76.041H72.0596L72.3311 77.1992C72.9787 79.9649 70.9203 82.502 68.124 82.502H5.82812C2.98754 82.5019 0.973961 79.9199 1.62207 77.1943L1.62793 77.1729L7.29102 54.8457C7.77593 52.9061 9.5221 51.5939 11.4912 51.5938H14.96Z" stroke="#3F586A" stroke-width="3"/>
<path d="M36.6133 20.8203C40.6415 20.8203 43.9589 24.0244 43.959 28.0449C43.959 32.0655 40.6415 35.2695 36.6133 35.2695C32.5852 35.2693 29.2686 32.0654 29.2686 28.0449C29.2686 24.0245 32.5852 20.8205 36.6133 20.8203Z" stroke="#3F586A" stroke-width="3"/>
<path d="M36.6123 1.5C51.4994 1.5 63.6846 13.3413 63.6846 27.959C63.6846 39.7644 56.4583 51.0674 50.5654 58.3545L50.5645 58.3535C44.9723 65.2742 39.7263 69.7791 39.4619 70.0049L39.458 70.0088C38.5182 70.8053 37.3244 71.1432 36.168 71.0264L36.1357 72.0625L33.7617 70.0322C33.4948 69.804 28.2486 65.2997 22.6572 58.3516C16.7973 51.0686 9.54005 39.7654 9.54004 27.959C9.54004 13.3413 21.7253 1.5 36.6123 1.5ZM36.6123 18.3662C31.127 18.3665 26.7471 22.6929 26.7471 27.959C26.7471 33.225 31.1271 37.5515 36.6123 37.5518C42.0978 37.5518 46.4785 33.2252 46.4785 27.959C46.4785 22.6928 42.0978 18.3662 36.6123 18.3662Z" stroke="#3F586A" stroke-width="3"/>
</svg>
