<svg width="58" height="58" viewBox="0 0 58 58" fill="none" xmlns="http://www.w3.org/2000/svg">
<circle cx="28.7868" cy="28.7866" r="26.5" transform="rotate(-174.814 28.7868 28.7866)" fill="#F4EEC4"/>
<path d="M18.5363 36.4093C18.4863 36.9593 18.8918 37.4457 19.4418 37.4956L28.4049 38.309C28.955 38.3589 29.4413 37.9535 29.4912 37.4035C29.5412 36.8535 29.1357 36.3671 28.5857 36.3172L20.6185 35.5942L21.3415 27.6269C21.3914 27.0769 20.986 26.5905 20.436 26.5406C19.8859 26.4907 19.3996 26.8961 19.3497 27.4461L18.5363 36.4093ZM37.0098 21.9304L36.3695 21.1623L18.8919 35.7316L19.5322 36.4997L20.1725 37.2678L37.6501 22.6985L37.0098 21.9304Z" fill="#596B77"/>
</svg>
