<svg width="119" height="111" viewBox="0 0 119 111" fill="none" xmlns="http://www.w3.org/2000/svg">
<path d="M91.6959 0.192348C88.9271 0.499992 85.4063 1.62803 83.0647 2.94407C79.8174 4.75577 76.3136 7.86641 74.2968 10.7036C71.2546 14.9765 69.5625 20.1552 69.5625 25.1117C69.5625 37.9986 78.1937 48.527 90.6704 50.8514C93.2 51.33 97.8659 51.2958 100.447 50.783C102.549 50.3558 105.318 49.467 106.822 48.6979C108.582 47.8091 110.941 46.1171 112.548 44.5789C114.103 43.0919 115.539 41.3998 115.539 41.058C115.539 40.9213 110.018 36.6142 109.249 36.1528C109.095 36.0673 108.48 36.5288 107.369 37.6226C105.506 39.4172 104.361 40.2376 102.327 41.1777C99.8486 42.3399 98.43 42.6304 95.1997 42.6304C92.1061 42.6304 90.9097 42.3911 88.6024 41.3486C81.1334 37.9645 77.1853 28.8889 79.5781 20.5312C80.9796 15.5917 84.1244 11.7462 88.4656 9.62683C93.1487 7.33657 98.9769 7.35367 103.694 9.64392C105.625 10.584 105.625 10.6181 105.625 15.1816V18.9588H109.915H114.205L114.137 13.2673C114.069 6.99475 114.052 6.92638 112.924 5.84962C111.488 4.4823 107.54 2.31169 104.891 1.44003C101.079 0.175255 96.0372 -0.303303 91.6959 0.192348Z" fill="white"/>
<path d="M13.332 5.37651V9.56392L14.6652 9.5981C15.383 9.63228 17.1605 9.64937 18.5962 9.64937H21.2112L21.6898 10.1792C21.9632 10.4698 22.3734 11.2389 22.6127 11.8884C23.8945 15.3066 34.9014 46.4473 35.2945 47.7291C35.8073 49.4725 36.4397 50.3099 37.4481 50.5834C37.8412 50.686 39.3452 50.7543 41.0202 50.7201L43.9257 50.6689L44.4556 50.139C44.8658 49.7288 45.3443 48.6008 46.7458 44.8407C51.9587 30.7402 59.3593 10.9825 59.5815 10.5723C60.0088 9.71774 60.6583 9.51264 62.7947 9.58101C63.8373 9.61519 65.3584 9.63228 66.1959 9.5981L67.6829 9.56392V5.37651V1.1891H60.8292H53.9755L53.514 1.65057C52.95 2.23168 53.2064 1.54802 49.3266 12.8967C44.4727 27.1168 41.362 36.0728 41.1398 36.5C40.9518 36.8761 40.7638 36.4488 39.2427 32.005C32.1326 11.2731 29.21 2.84697 28.9023 2.24878C28.6972 1.85567 28.3896 1.46257 28.2187 1.36002C27.9965 1.25747 25.279 1.1891 20.613 1.1891H13.332V5.37651Z" fill="white"/>
<path d="M47.2914 60.8548C41.3607 61.5043 36.5409 64.3928 33.379 69.1613C33.0201 69.674 32.7295 70.0329 32.6953 69.9646C32.6441 69.7766 32.1313 62.0683 32.1313 61.453V61.0087H24.5256H16.9199V64.7688V68.5289H20.851H24.782V84.9367V101.344H20.851H16.9199V105.361V109.377H35.5496H54.1793V105.446V101.515H43.8219H33.4645L33.5499 91.3802C33.6525 80.2878 33.6695 80.0143 34.7292 77.4677C36.7802 72.4941 41.1214 69.0929 46.0267 68.5973L47.1718 68.4776V72.101V75.7073H51.2737H55.3757V68.3751V61.0599L54.6066 60.9574C53.1367 60.7523 48.7784 60.6839 47.2914 60.8548Z" fill="white"/>
<path d="M64.6055 65.1969V69.3843H68.1947H71.7839V79.5879C71.7839 85.211 71.8693 91.1075 71.9548 92.7141C72.2966 99.1405 73.681 102.781 77.0651 106.131C78.9281 107.977 80.398 108.9 82.9617 109.823C85.1323 110.592 87.0978 110.917 89.5932 110.917C94.2421 110.917 97.7629 109.447 101.01 106.148C101.814 105.345 102.839 104.114 103.301 103.448C103.762 102.764 104.172 102.234 104.223 102.285C104.326 102.371 104.89 105.84 105.044 107.31C105.163 108.541 105.454 109.276 105.881 109.447C106.035 109.498 108.975 109.549 112.393 109.549H118.614V105.447V101.345H115.367H112.12V81.1774V61.0095H103.489H94.8573V65.1969V69.3843H98.9422H103.027L103.147 74.9732C103.301 81.109 103.164 89.6377 102.89 91.5006C101.95 97.9612 96.4468 102.884 90.1572 102.884C86.1578 102.884 83.1839 100.747 81.7824 96.8503C80.7911 94.1327 80.7911 93.9105 80.7056 76.7678L80.6543 61.0095H72.6214H64.6055V65.1969Z" fill="white"/>
<path d="M0 105.448V109.721H4.18741H8.37481V105.448V101.175H4.18741H0V105.448Z" fill="white"/>
</svg>
