<svg width="38" height="22" viewBox="0 0 38 22" fill="none" xmlns="http://www.w3.org/2000/svg">
<path d="M22.6217 10.422C21.9386 10.1659 21.9386 9.18774 21.8962 8.50657C21.7254 6.08026 22.5793 2.37608 21.5547 0.801221C20.8292 -0.136064 17.3275 -0.0502369 15.1935 0.0778223C14.5951 0.163649 13.8696 0.290347 13.3573 0.546466C12.8449 0.802584 12.3326 1.22763 12.3326 1.61045C12.3326 2.16355 13.6141 2.07909 14.0827 2.80249C14.5951 3.56948 14.5951 5.2288 14.5951 6.59113C14.5951 8.16599 14.3382 10.2531 13.6988 10.3375C12.7165 10.3798 12.1618 9.40026 11.6495 8.67686C10.6248 7.2723 9.6001 5.52579 8.83091 3.82288C8.447 2.92918 8.2325 1.94967 7.67781 1.56685C6.82391 0.970151 5.28689 0.927919 3.79223 0.970151C2.42599 1.01238 0.461346 0.842092 0.0774338 1.65132C-0.221772 2.54501 0.418993 3.39646 0.760552 4.12123C2.5107 7.90987 4.38928 11.2312 6.69548 14.381C8.83091 17.3181 10.8365 19.66 14.7645 20.8943C15.8752 21.2348 20.7418 22.2144 21.7241 20.8943C22.0656 20.3834 21.9809 19.2336 22.1517 18.3821C22.3225 17.5307 22.5356 16.6792 23.3472 16.637C24.0303 16.5947 24.4142 17.1901 24.8418 17.6165C25.3118 18.0851 25.6957 18.4679 26.0373 18.8944C26.8488 19.7036 27.7027 20.8098 28.7274 21.2362C30.136 21.8329 32.3138 21.6626 34.3631 21.5768C36.0286 21.5346 37.224 21.194 37.3525 20.2145C37.4385 19.4475 36.5833 18.3413 36.0709 17.7023C34.7894 16.1275 34.1924 15.6588 32.74 14.2107C32.0993 13.5717 31.2877 12.8906 31.2877 12.1249C31.2454 11.6563 31.6293 11.2312 31.9709 10.7626C33.4655 8.54881 34.9602 6.97395 36.3264 4.67433C36.7103 3.99317 37.6079 2.41831 37.2664 1.65132C36.8825 0.79986 34.747 1.05461 33.4232 1.05461C31.7154 1.05461 29.4952 0.926556 29.0676 1.26714C28.2561 1.82025 27.9145 2.7153 27.5306 3.56676C26.6767 5.52579 25.5236 7.52569 24.3281 9.01609C23.9005 9.52696 23.0903 10.5909 22.6203 10.4207L22.6217 10.422Z" fill="#79A7FF"/>
</svg>
